<svg xmlns="http://www.w3.org/2000/svg" width="40" height="40" viewBox="0 0 40 40">
  <path fill="#CECECE" fill-rule="evenodd" d="M35.640625,26.28125 L22.28125,22.140625 L22.28125,31.28125 L25.640625,33.78125 L25.640625,36.28125 L19.78125,34.640625 L14,36.28125 L14,33.78125 L17.28125,31.28125 L17.28125,22.140625 L4,26.28125 L4,23 L17.28125,14.640625 L17.28125,5.5 C17.28125,4.82291328 17.5286434,4.23698164 18.0234375,3.7421875 C18.5182316,3.24739336 19.1041633,3 19.78125,3 C20.4583367,3 21.0442684,3.24739336 21.5390625,3.7421875 C22.0338566,4.23698164 22.28125,4.82291328 22.28125,5.5 L22.28125,14.640625 L35.640625,23 L35.640625,26.28125 Z" transform="rotate(90 19.82 19.64)"/>
</svg>
