<svg xmlns="http://www.w3.org/2000/svg" xmlns:xlink="http://www.w3.org/1999/xlink" viewBox="0 0 16 12">
  <defs>
    <rect id="path-1" width="16" height="12" rx="1"/>
  </defs>
  <g id="AL" fill="none" fill-rule="evenodd">
    <g id="Albania">
      <mask id="mask-2" fill="white">
        <use xlink:href="#path-1"/>
      </mask>
      <use id="Rectangle-77" fill="#FFFFFF" xlink:href="#path-1"/>
      <rect id="Rectangle-77" width="16" height="12" fill="#E41E20" mask="url(#mask-2)"/>
      <path id="Combined-Shape" fill="#181A1A" d="M7,7 L7,6 L6,6 L6,5 L7,5 L7,4 L9,4 L9,5 L10,5 L10,6 L9,6 L9,7 L10,7 L10,8 L9,8 L9,9 L7,9 L7,8 L6,8 L6,7 L7,7 Z M5,3 L7,3 L7,4 L5,4 L5,3 Z M9,3 L11,3 L11,4 L9,4 L9,3 Z" mask="url(#mask-2)"/>
      <g id="Overlay" stroke="#000000" stroke-opacity=".1" mask="url(#mask-2)">
        <rect width="15" height="11" x=".5" y=".5" style="mix-blend-mode:multiply"/>
      </g>
    </g>
  </g>
</svg>
