<svg xmlns="http://www.w3.org/2000/svg" xmlns:xlink="http://www.w3.org/1999/xlink" viewBox="0 0 16 12">
  <defs>
    <rect id="path-1" width="16" height="12" rx="1"/>
    <path id="path-3" d="M8.43891658,2.00053307 C10.3716188,1.96679762 11.9657315,3.50621436 11.9994669,5.43891658 C12.0332024,7.3716188 10.4937856,8.96573149 8.56108342,8.99946693 C6.6283812,9.03320238 5.03426851,7.49378564 5.00053307,5.56108342 C4.96679762,3.6283812 6.50621436,2.03426851 8.43891658,2.00053307 Z"/>
    <mask id="mask-4" width="7" height="7" x="0" y="0" fill="white">
      <use xlink:href="#path-3"/>
    </mask>
  </defs>
  <g id="AO" fill="none" fill-rule="evenodd">
    <g id="Angola">
      <mask id="mask-2" fill="white">
        <use xlink:href="#path-1"/>
      </mask>
      <use id="Rectangle-77" fill="#FFFFFF" xlink:href="#path-1"/>
      <rect id="Rectangle-119-Copy" width="16" height="6" y="6" fill="#000000" mask="url(#mask-2)"/>
      <rect id="Rectangle-119-Copy-32" width="16" height="6" fill="#D8241B" mask="url(#mask-2)"/>
      <polygon id="Star-2" fill="#F7D418" points="8.5 5.25 7.618 5.714 7.787 4.732 7.073 4.036 8.059 3.893 8.5 3 8.941 3.893 9.927 4.036 9.213 4.732 9.382 5.714" mask="url(#mask-2)"/>
      <g id="Oval" stroke="#F7D418" stroke-dasharray="13 20" stroke-width="2" mask="url(#mask-2)">
        <use mask="url(#mask-4)" xlink:href="#path-3"/>
      </g>
      <rect id="Rectangle-2" width="5" height="1" x="6.9" y="7.216" fill="#F7D418" mask="url(#mask-2)" transform="rotate(31 9.4 7.716)"/>
      <g id="Overlay" stroke="#000000" stroke-opacity=".1" mask="url(#mask-2)">
        <rect width="15" height="11" x=".5" y=".5" style="mix-blend-mode:multiply"/>
      </g>
    </g>
  </g>
</svg>
