<svg xmlns="http://www.w3.org/2000/svg" xmlns:xlink="http://www.w3.org/1999/xlink" viewBox="0 0 16 12">
  <defs>
    <rect id="path-1" width="16" height="12" rx="1"/>
  </defs>
  <g id="BI" fill="none" fill-rule="evenodd">
    <g id="Burundi">
      <mask id="mask-2" fill="white">
        <use xlink:href="#path-1"/>
      </mask>
      <use id="Rectangle-77" fill="#FFFFFF" xlink:href="#path-1"/>
      <rect id="Rectangle-119-Copy" width="16" height="12" fill="#2875C6" mask="url(#mask-2)"/>
      <polygon id="Rectangle-119-Copy-38" fill="#CE1126" points="8 6 16 12 0 12" mask="url(#mask-2)"/>
      <polygon id="Rectangle-119-Copy-39" fill="#CE1126" points="8 6 16 0 0 0" mask="url(#mask-2)"/>
      <polygon id="Rectangle-119-Copy-36" fill="#1EB53A" points="0 0 8 6 0 12" mask="url(#mask-2)"/>
      <polygon id="Rectangle-119-Copy-37" fill="#1EB53A" points="8 0 16 6 8 12" mask="url(#mask-2)" transform="matrix(-1 0 0 1 24 0)"/>
      <path id="Rectangle-114" fill="#FFFFFF" d="M6.81818182,6 L0,0.999999997 L0,4.78120999e-08 L1,2.77555755e-17 L8,5.13333333 L15,2.77555755e-17 L16,4.78120999e-08 L16,0.999999997 L9.18181818,6 L16,11 L16,12 L15,12 L8,6.86666667 L1,12 L0,12 L0,11 L6.81818182,6 Z" mask="url(#mask-2)"/>
      <circle id="Oval-9" cx="8" cy="6" r="3" fill="#FFFFFF" mask="url(#mask-2)"/>
      <g id="Group-2" fill="#CE1126" mask="url(#mask-2)">
        <g transform="translate(6 4)">
          <polygon id="Star-7" points="1.746 1.433 1.13 1.5 1.496 1 1.13 .5 1.746 .567 1.996 0 2.246 .567 2.862 .5 2.496 1 2.862 1.5 2.246 1.433 1.996 2"/>
          <polygon id="Star-7-Copy" points=".616 3.433 0 3.5 .366 3 0 2.5 .616 2.567 .866 2 1.116 2.567 1.732 2.5 1.366 3 1.732 3.5 1.116 3.433 .866 4"/>
          <polygon id="Star-7-Copy-2" points="2.886 3.433 2.27 3.5 2.636 3 2.27 2.5 2.886 2.567 3.136 2 3.386 2.567 4.002 2.5 3.636 3 4.002 3.5 3.386 3.433 3.136 4"/>
        </g>
      </g>
      <g id="Overlay" stroke="#000000" stroke-opacity=".1" mask="url(#mask-2)">
        <rect width="15" height="11" x=".5" y=".5" style="mix-blend-mode:multiply"/>
      </g>
    </g>
  </g>
</svg>
