<svg xmlns="http://www.w3.org/2000/svg" xmlns:xlink="http://www.w3.org/1999/xlink" viewBox="0 0 16 12">
  <defs>
    <rect id="path-1" width="15.957" height="12" rx="1"/>
  </defs>
  <g id="BN" fill="none" fill-rule="evenodd">
    <g id="Brunei-Darussalam">
      <mask id="mask-2" fill="white">
        <use xlink:href="#path-1"/>
      </mask>
      <use id="Rectangle-77" fill="#FFFFFF" xlink:href="#path-1"/>
      <rect id="Rectangle-119-Copy" width="16" height="12" fill="#F7E017" mask="url(#mask-2)"/>
      <g id="Group-6" mask="url(#mask-2)">
        <g transform="rotate(21 -.791 -6.791)">
          <rect id="Rectangle-25" width="24" height="2" fill="#FFFFFF"/>
          <rect id="Rectangle-25-Copy" width="24" height="2" y="2" fill="#000000"/>
        </g>
      </g>
      <circle id="Oval-32" cx="8" cy="6" r="2.5" stroke="#CF1126" mask="url(#mask-2)"/>
      <path id="Oval-32-Copy" fill="#CF1126" fill-rule="nonzero" d="M9.97160319,8.95201068 C8.72115941,10.0390049 6.82629155,9.9065028 5.73929736,8.65605903 L6.49400694,8 C7.21866974,8.83362918 8.48191498,8.9219639 9.31554416,8.1973011 C9.38497291,8.13694761 9.44956968,8.07265257 9.5091969,8.00473019 L10.2607026,8.66445675 C10.1721293,8.76535217 10.0757432,8.86148312 9.97160319,8.95201068 Z" mask="url(#mask-2)"/>
      <rect id="Rectangle-26" width="1" height="3" x="4" y="4" fill="#CF1126" mask="url(#mask-2)"/>
      <rect id="Rectangle-26-Copy-2" width="1" height="5" x="7.5" y="2" fill="#CF1126" mask="url(#mask-2)"/>
      <rect id="Rectangle-26-Copy" width="1" height="3" x="11" y="4" fill="#CF1126" mask="url(#mask-2)"/>
      <g id="Overlay" stroke="#000000" stroke-opacity=".1" mask="url(#mask-2)">
        <rect width="15" height="11" x=".5" y=".5" style="mix-blend-mode:multiply"/>
      </g>
    </g>
  </g>
</svg>
