<svg xmlns="http://www.w3.org/2000/svg" xmlns:xlink="http://www.w3.org/1999/xlink" viewBox="0 0 16 12">
  <defs>
    <rect id="path-1" width="16" height="12" rx="1"/>
  </defs>
  <g id="BT" fill="none" fill-rule="evenodd">
    <g id="Bhutan">
      <mask id="mask-2" fill="white">
        <use xlink:href="#path-1"/>
      </mask>
      <use id="Rectangle-77" fill="#FFFFFF" xlink:href="#path-1"/>
      <rect id="Rectangle-119-Copy" width="16" height="12" fill="#FFD520" mask="url(#mask-2)"/>
      <polygon id="Rectangle-119-Copy-85" fill="#FF4E12" points="16 0 16 12 0 12" mask="url(#mask-2)"/>
      <path id="Combined-Shape" fill="#FFFFFF" fill-rule="nonzero" d="M10.3433212,3.1401155 C11.4892048,3.21990162 12.2164736,3.217817 12.2967789,3.17766433 L12.7439925,4.07209153 C12.4532244,4.21747559 11.8036027,4.23551729 10.615063,4.16075728 C10.8633651,5.17346889 10.8364563,5.55352044 10.415619,5.89019026 C10.2986798,5.98374161 10.1671293,6.05224529 10.0052241,6.10000694 C9.93781881,6.17210492 9.88312954,6.23713502 9.84127293,6.29404765 C9.8602161,6.30101032 9.88152755,6.30899415 9.90508885,6.31728423 C10.159526,6.40680841 10.5444805,6.50304704 11.054093,6.60297105 L10.8616785,7.5842848 C9.53831674,7.3248021 8.94922294,7.11752836 8.79604409,6.65799181 C8.74305024,6.49901025 8.74043195,6.3423043 8.78295987,6.18292908 C8.5342515,6.17360678 8.24991091,6.15620332 7.92236793,6.13278906 C7.82827054,6.12601921 7.82827054,6.12601921 7.73474622,6.11919055 C6.64863275,6.03980741 6.14098625,6.03712644 6.06812158,6.08570288 C6.00297093,6.12913665 5.94381084,6.25254989 5.85575809,6.59037229 C5.84739907,6.62244242 5.7712211,6.92503385 5.744572,7.02499522 C5.69348396,7.21662759 5.64300406,7.38434966 5.58363894,7.55287261 C5.51597486,7.74495428 5.43900136,7.93064351 5.35015846,8.11219243 C5.64453157,9.13590381 5.71241464,9.82877639 5.50472731,10.2738207 L4.59854417,9.8509352 C4.63910951,9.76400948 4.63950497,9.56167228 4.5910553,9.25859619 C4.00520814,9.9635897 3.44369628,10.3097464 2.862027,10.246859 L2.96951597,9.25265272 C3.19234602,9.27674407 3.60561573,8.95884429 4.13204911,8.21175235 C4.52466057,7.65457481 4.60272999,7.43295496 4.88808848,6.3381511 C5.03534736,5.77317901 5.17682064,5.47805309 5.51342139,5.25365259 C5.88356637,5.00688927 6.26209678,5.00888835 7.80764095,5.12185091 C7.90075156,5.1286493 7.90075156,5.1286493 7.99367054,5.13533433 C9.08052338,5.21302752 9.68275353,5.1958578 9.79092396,5.10932145 C9.7791906,5.11870814 9.70963811,4.61127901 9.46583179,3.72318991 L9.4542054,3.68086037 C9.25366361,2.95097836 9.18433002,2.66650724 9.1452892,2.33725528 C9.07216503,1.72056034 9.20076907,1.26219241 9.74084173,1.13756026 C10.4022255,0.984933235 11.5833245,1.20365526 13.3793934,1.77314054 L13.0771496,2.72637118 C11.634311,2.26888578 10.6287784,2.06180328 10.1277742,2.09059605 C10.1291421,2.12697783 10.1324865,2.17020315 10.1383325,2.21950586 C10.1643993,2.43934052 10.2149947,2.66380346 10.3433212,3.1401155 Z" mask="url(#mask-2)"/>
      <g id="Overlay" stroke="#000000" stroke-opacity=".1" mask="url(#mask-2)">
        <rect width="15" height="11" x=".5" y=".5" style="mix-blend-mode:multiply"/>
      </g>
    </g>
  </g>
</svg>
