<svg xmlns="http://www.w3.org/2000/svg" xmlns:xlink="http://www.w3.org/1999/xlink" viewBox="0 0 16 12">
  <defs>
    <rect id="path-1" width="16" height="12" rx="1"/>
  </defs>
  <g id="CA-AB" fill="none" fill-rule="evenodd">
    <g id="Alberta">
      <mask id="mask-2" fill="white">
        <use xlink:href="#path-1"/>
      </mask>
      <use id="Rectangle-77" fill="#0D3692" xlink:href="#path-1"/>
      <g id="Group-26" mask="url(#mask-2)">
        <g transform="translate(6 3)">
          <polygon id="Rectangle-119-Copy-7" fill="#FFFFFF" points="0 0 4 0 4 4 2 6 0 4"/>
          <g id="England-Symbol">
            <rect id="Rectangle-77" width="4" height="1" fill="#FFFFFF"/>
            <polygon id="Rectangle-112" fill="#CE1124" points="2.25 .417 4 .417 4 .583 2.25 .583 2.25 1 1.75 1 1.75 .583 0 .583 0 .417 1.75 .417 1.75 0 2.25 0"/>
          </g>
          <polygon id="Rectangle-119-Copy-8" fill="#FEBA35" points="4 4 2 6 0 4"/>
          <rect id="Rectangle-506-Copy-3" width="4" height="1" y="3" fill="#BDBDBD"/>
          <rect id="Rectangle-506-Copy-10" width="4" height="1" y="2" fill="#0D6826"/>
          <rect id="Rectangle-506-Copy-11" width="4" height="1" y="1" fill="#0D3692"/>
        </g>
      </g>
      <g id="Overlay" stroke="#000000" stroke-opacity=".1" mask="url(#mask-2)">
        <rect width="15" height="11" x=".5" y=".5" style="mix-blend-mode:multiply"/>
      </g>
    </g>
  </g>
</svg>
