<svg xmlns="http://www.w3.org/2000/svg" xmlns:xlink="http://www.w3.org/1999/xlink" viewBox="0 0 16 12">
  <defs>
    <rect id="path-1" width="16" height="12" rx="1"/>
    <rect id="path-3" width="8" height="6" rx="1"/>
    <rect id="path-5" width="8" height="6"/>
  </defs>
  <g id="CA-MB" fill="none" fill-rule="evenodd">
    <g id="Manitoba">
      <mask id="mask-2" fill="white">
        <use xlink:href="#path-1"/>
      </mask>
      <use id="Rectangle-77" fill="#CC0000" xlink:href="#path-1"/>
      <g id="GB" mask="url(#mask-2)">
        <g id="United-Kingdom">
          <mask id="mask-4" fill="white">
            <use xlink:href="#path-3"/>
          </mask>
          <use id="Rectangle-77" fill="#FFFFFF" xlink:href="#path-3"/>
          <g id="GB-Symbol" mask="url(#mask-4)">
            <g id="UK">
              <mask id="mask-6" fill="white">
                <use xlink:href="#path-5"/>
              </mask>
              <use id="Rectangle-77" fill="#FFFFFF" xlink:href="#path-5"/>
              <g id="St-Andrew" mask="url(#mask-6)">
                <g transform="translate(-1 -1)">
                  <rect id="Rectangle-77" width="8" height="6" x="1" y="1" fill="#00247D"/>
                  <rect id="Rectangle-3" width="11.087" height="1.5" x="-.618" y="3.115" fill="#FFFFFF" transform="rotate(36 4.926 3.865)"/>
                  <rect id="Rectangle-3-Copy" width="11.087" height="1.5" x="-.618" y="3.115" fill="#FFFFFF" transform="scale(-1 1) rotate(36 0 -11.294)"/>
                </g>
              </g>
              <g id="St-Patrick" mask="url(#mask-6)">
                <g transform="translate(-1 -3)">
                  <g id="Group-2" transform="translate(.5 2.5)">
                    <rect id="Rectangle-2" width="5.117" height="1" x="-.342" y="1.806" fill="#CF142B" transform="rotate(36 2.217 2.056)"/>
                    <rect id="Rectangle-2-Copy" width="5.117" height="1" x="4.158" y="4.606" fill="#CF142B" transform="rotate(36 6.717 4.856)"/>
                  </g>
                  <g id="Group-2-Copy" transform="rotate(-72 6.47 4.406)">
                    <rect id="Rectangle-2-Copy" width="5.549" height="1" x="4.121" y="4.582" fill="#CF142B" transform="rotate(36 6.896 4.832)"/>
                    <rect id="Rectangle-2" width="5.117" height="1" x="-.042" y="1.859" fill="#CF142B" transform="rotate(36 2.517 2.109)"/>
                  </g>
                </g>
              </g>
              <g id="St-George" mask="url(#mask-6)">
                <path id="Combined-Shape" fill="#FFFFFF" d="M3,2 L3,0 L5,0 L5,2 L8,2 L8,4 L5,4 L5,6 L3,6 L3,4 L0,4 L0,2 L3,2 Z"/>
                <polygon id="Rectangle-112" fill="#CF142B" points="8 2.5 8 3.5 4.5 3.5 4.5 6 3.5 6 3.5 3.5 0 3.5 0 2.5 3.5 2.5 3.5 0 4.5 0 4.5 2.5"/>
              </g>
            </g>
          </g>
          <g id="Overlay" stroke="#000000" stroke-opacity=".1" mask="url(#mask-4)">
            <rect width="7" height="5" x=".5" y=".5" style="mix-blend-mode:multiply"/>
          </g>
        </g>
      </g>
      <g id="Group-26" mask="url(#mask-2)">
        <g transform="translate(10 3)">
          <polygon id="Rectangle-119-Copy-7" fill="#165016" points="0 0 4 0 4 4 2 6 0 4"/>
          <polygon id="Rectangle-119-Copy-8" fill="#B48F42" points="4 4 2 6 0 4"/>
          <rect id="Rectangle-81-Copy" width="2" height="2" x="1" y="2" fill="#B48F42"/>
          <g id="England-Symbol">
            <rect id="Rectangle-77" width="4" height="2" fill="#FFFFFF"/>
            <polygon id="Rectangle-112" fill="#CE1124" points="2.25 .833 4 .833 4 1.167 2.25 1.167 2.25 2 1.75 2 1.75 1.167 0 1.167 0 .833 1.75 .833 1.75 0 2.25 0"/>
          </g>
        </g>
      </g>
      <g id="Overlay" stroke="#000000" stroke-opacity=".1" mask="url(#mask-2)">
        <rect width="15" height="11" x=".5" y=".5" style="mix-blend-mode:multiply"/>
      </g>
    </g>
  </g>
</svg>
