<svg xmlns="http://www.w3.org/2000/svg" xmlns:xlink="http://www.w3.org/1999/xlink" viewBox="0 0 16 12">
  <defs>
    <rect id="path-1" width="16" height="12" rx="1"/>
    <polygon id="path-3" points="0 0 4 0 4 4 2 6 0 4"/>
  </defs>
  <g id="CA-NS" fill="none" fill-rule="evenodd">
    <g id="Nova-Scotia">
      <mask id="mask-2" fill="white">
        <use xlink:href="#path-1"/>
      </mask>
      <use id="Rectangle-77" fill="#FFFFFF" xlink:href="#path-1"/>
      <path id="Rectangle-114" fill="#0047B6" d="M6.81818182,6 L0,0.999999997 L0,4.78120999e-08 L1,2.77555755e-17 L8,5.13333333 L15,2.77555755e-17 L16,4.78120999e-08 L16,0.999999997 L9.18181818,6 L16,11 L16,12 L15,12 L8,6.86666667 L1,12 L0,12 L0,11 L6.81818182,6 Z" mask="url(#mask-2)"/>
      <g id="Group-26" mask="url(#mask-2)">
        <g transform="translate(6 3)">
          <g id="Rectangle-119-Copy-7">
            <use fill="#FDD44F" xlink:href="#path-3"/>
            <path stroke="#D21034" d="M-0.5,-0.5 L4.5,-0.5 L4.5,4.20710678 L2,6.70710678 L-0.5,4.20710678 L-0.5,-0.5 Z"/>
          </g>
          <polygon id="Combined-Shape" fill="#D21034" fill-rule="nonzero" points="1.253 3.338 .861 3.404 .694 2.418 1.577 2.269 .405 .955 1.151 .289 1.997 1.238 2.227 .362 3.195 .616 2.76 2.273 3.453 4.377 2.503 4.69 2.21 3.8 1.395 4.601 .694 3.888"/>
        </g>
      </g>
      <g id="Overlay" stroke="#000000" stroke-opacity=".1" mask="url(#mask-2)">
        <rect width="15" height="11" x=".5" y=".5" style="mix-blend-mode:multiply"/>
      </g>
    </g>
  </g>
</svg>
