<svg xmlns="http://www.w3.org/2000/svg" xmlns:xlink="http://www.w3.org/1999/xlink" viewBox="0 0 16 12">
  <defs>
    <rect id="path-1" width="16" height="12" rx="1"/>
    <path id="path-3" d="M3,0 L6,0 C5.84863767,0.680970217 5.77295651,1.18097022 5.77295651,1.5 C5.77295651,1.81902978 5.84863767,2.31902978 6,3 C5.11587398,2.60251983 4.499853,2.40377974 4.15193706,2.40377974 C3.80402112,2.40377974 3.4200421,2.60251983 3,3 C2.72509818,2.17455651 2.58764726,1.5726336 2.58764726,1.19423128 C2.58764726,0.815828956 2.72509818,0.417751863 3,0 Z"/>
    <rect id="path-4" width="16" height="3"/>
  </defs>
  <g id="CA-NB" fill="none" fill-rule="evenodd">
    <g id="New-Brunswick">
      <mask id="mask-2" fill="white">
        <use xlink:href="#path-1"/>
      </mask>
      <use id="Rectangle-77" fill="#F4C600" xlink:href="#path-1"/>
      <g id="Water" mask="url(#mask-2)">
        <g transform="translate(0 9)">
          <rect id="Rectangle-81-Copy-2" width="16" height="2" y="1" fill="#00247D"/>
          <path id="blue" fill="#00247D" fill-rule="nonzero" d="M3.2,1.21639921 C3.23420249,1.21639921 3.39880602,1.07708948 3.72554012,0.727013584 C3.73773859,0.713944301 3.73773859,0.713944301 3.74999675,0.700819507 C4.23964284,0.176699093 4.45430495,0 4.8,0 C5.157138,0 5.30631681,0.13296711 5.84093041,0.733791053 C6.14996466,1.0810983 6.31572019,1.21639921 6.4,1.21639921 C6.43420249,1.21639921 6.59880602,1.07708948 6.92554012,0.727013584 C6.93773859,0.713944301 6.93773859,0.713944301 6.94999675,0.700819507 C7.43964284,0.176699093 7.65430495,0 8,0 C8.357138,0 8.50631681,0.13296711 9.04093041,0.733791053 C9.34996466,1.0810983 9.51572019,1.21639921 9.6,1.21639921 C9.63420249,1.21639921 9.79880602,1.07708948 10.1255401,0.727013584 C10.1377386,0.713944301 10.1377386,0.713944301 10.1499968,0.700819507 C10.6396428,0.176699093 10.8543049,0 11.2,0 C11.557138,0 11.7063168,0.13296711 12.2409304,0.733791053 C12.5499647,1.0810983 12.7157202,1.21639921 12.8,1.21639921 C12.8342025,1.21639921 12.998806,1.07708948 13.3255401,0.727013584 C13.3377386,0.713944301 13.3377386,0.713944301 13.3499968,0.700819507 C13.8396428,0.176699093 14.0543049,0 14.4,0 C14.757138,0 14.9063168,0.13296711 15.4409304,0.733791053 C15.7499647,1.0810983 15.9157202,1.21639921 16,1.21639921 L16,2 C15.60977,2 15.3599901,1.79611268 14.8884814,1.26620895 C14.5662322,0.90405018 14.4310973,0.783600787 14.4,0.783600787 C14.3614224,0.783600787 14.1942986,0.921168717 13.88984,1.24706328 C13.8777668,1.25999 13.8777668,1.25999 13.8656363,1.27298642 C13.3353708,1.84113395 13.1476603,2 12.8,2 C12.40977,2 12.1599901,1.79611268 11.6884814,1.26620895 C11.3662322,0.90405018 11.2310973,0.783600787 11.2,0.783600787 C11.1614224,0.783600787 10.9942986,0.921168717 10.68984,1.24706328 C10.6777668,1.25999 10.6777668,1.25999 10.6656363,1.27298642 C10.1353708,1.84113395 9.94766025,2 9.6,2 C9.20977,2 8.95999009,1.79611268 8.48848135,1.26620895 C8.16623221,0.90405018 8.0310973,0.783600787 8,0.783600787 C7.96142243,0.783600787 7.79429864,0.921168717 7.48983998,1.24706328 C7.47776681,1.25999 7.47776681,1.25999 7.46563635,1.27298642 C6.93537083,1.84113395 6.74766025,2 6.4,2 C6.00977,2 5.75999009,1.79611268 5.28848135,1.26620895 C4.96623221,0.90405018 4.8310973,0.783600787 4.8,0.783600787 C4.76142243,0.783600787 4.59429864,0.921168717 4.28983998,1.24706328 C4.27776681,1.25999 4.27776681,1.25999 4.26563635,1.27298642 C3.73537083,1.84113395 3.54766025,2 3.2,2 C2.80977,2 2.55999009,1.79611268 2.08848135,1.26620895 C1.76623221,0.90405018 1.6310973,0.783600787 1.6,0.783600787 C1.56142243,0.783600787 1.39429864,0.921168717 1.08983998,1.24706328 C1.07776681,1.25999 1.07776681,1.25999 1.06563635,1.27298642 C0.535370834,1.84113395 0.347660251,2 0,2 L0,1.21639921 C0.0342024944,1.21639921 0.198806018,1.07708948 0.525540121,0.727013584 C0.537738591,0.713944301 0.537738591,0.713944301 0.549996754,0.700819507 C1.03964284,0.176699093 1.25430495,0 1.6,0 C1.957138,0 2.10631681,0.13296711 2.64093041,0.733791053 C2.94996466,1.0810983 3.11572019,1.21639921 3.2,1.21639921 Z M3.2,3.21639921 C3.23420249,3.21639921 3.39880602,3.07708948 3.72554012,2.72701358 C3.73773859,2.7139443 3.73773859,2.7139443 3.74999675,2.70081951 C4.23964284,2.17669909 4.45430495,2 4.8,2 C5.157138,2 5.30631681,2.13296711 5.84093041,2.73379105 C6.14996466,3.0810983 6.31572019,3.21639921 6.4,3.21639921 C6.43420249,3.21639921 6.59880602,3.07708948 6.92554012,2.72701358 C6.93773859,2.7139443 6.93773859,2.7139443 6.94999675,2.70081951 C7.43964284,2.17669909 7.65430495,2 8,2 C8.357138,2 8.50631681,2.13296711 9.04093041,2.73379105 C9.34996466,3.0810983 9.51572019,3.21639921 9.6,3.21639921 C9.63420249,3.21639921 9.79880602,3.07708948 10.1255401,2.72701358 C10.1377386,2.7139443 10.1377386,2.7139443 10.1499968,2.70081951 C10.6396428,2.17669909 10.8543049,2 11.2,2 C11.557138,2 11.7063168,2.13296711 12.2409304,2.73379105 C12.5499647,3.0810983 12.7157202,3.21639921 12.8,3.21639921 C12.8342025,3.21639921 12.998806,3.07708948 13.3255401,2.72701358 C13.3377386,2.7139443 13.3377386,2.7139443 13.3499968,2.70081951 C13.8396428,2.17669909 14.0543049,2 14.4,2 C14.757138,2 14.9063168,2.13296711 15.4409304,2.73379105 C15.7499647,3.0810983 15.9157202,3.21639921 16,3.21639921 L16,4 C15.60977,4 15.3599901,3.79611268 14.8884814,3.26620895 C14.5662322,2.90405018 14.4310973,2.78360079 14.4,2.78360079 C14.3614224,2.78360079 14.1942986,2.92116872 13.88984,3.24706328 C13.8777668,3.25999 13.8777668,3.25999 13.8656363,3.27298642 C13.3353708,3.84113395 13.1476603,4 12.8,4 C12.40977,4 12.1599901,3.79611268 11.6884814,3.26620895 C11.3662322,2.90405018 11.2310973,2.78360079 11.2,2.78360079 C11.1614224,2.78360079 10.9942986,2.92116872 10.68984,3.24706328 C10.6777668,3.25999 10.6777668,3.25999 10.6656363,3.27298642 C10.1353708,3.84113395 9.94766025,4 9.6,4 C9.20977,4 8.95999009,3.79611268 8.48848135,3.26620895 C8.16623221,2.90405018 8.0310973,2.78360079 8,2.78360079 C7.96142243,2.78360079 7.79429864,2.92116872 7.48983998,3.24706328 C7.47776681,3.25999 7.47776681,3.25999 7.46563635,3.27298642 C6.93537083,3.84113395 6.74766025,4 6.4,4 C6.00977,4 5.75999009,3.79611268 5.28848135,3.26620895 C4.96623221,2.90405018 4.8310973,2.78360079 4.8,2.78360079 C4.76142243,2.78360079 4.59429864,2.92116872 4.28983998,3.24706328 C4.27776681,3.25999 4.27776681,3.25999 4.26563635,3.27298642 C3.73537083,3.84113395 3.54766025,4 3.2,4 C2.80977,4 2.55999009,3.79611268 2.08848135,3.26620895 C1.76623221,2.90405018 1.6310973,2.78360079 1.6,2.78360079 C1.56142243,2.78360079 1.39429864,2.92116872 1.08983998,3.24706328 C1.07776681,3.25999 1.07776681,3.25999 1.06563635,3.27298642 C0.535370834,3.84113395 0.347660251,4 0,4 L0,3.21639921 C0.0342024944,3.21639921 0.198806018,3.07708948 0.525540121,2.72701358 C0.537738591,2.7139443 0.537738591,2.7139443 0.549996754,2.70081951 C1.03964284,2.17669909 1.25430495,2 1.6,2 C1.957138,2 2.10631681,2.13296711 2.64093041,2.73379105 C2.94996466,3.0810983 3.11572019,3.21639921 3.2,3.21639921 Z"/>
          <path id="waves-white" fill="#FFFFFF" fill-rule="nonzero" d="M3.2,2.21639921 C3.23420249,2.21639921 3.39880602,2.07708948 3.72554012,1.72701358 C3.73773859,1.7139443 3.73773859,1.7139443 3.74999675,1.70081951 C4.23964284,1.17669909 4.45430495,1 4.8,1 C5.157138,1 5.30631681,1.13296711 5.84093041,1.73379105 C6.14996466,2.0810983 6.31572019,2.21639921 6.4,2.21639921 C6.43420249,2.21639921 6.59880602,2.07708948 6.92554012,1.72701358 C6.93773859,1.7139443 6.93773859,1.7139443 6.94999675,1.70081951 C7.43964284,1.17669909 7.65430495,1 8,1 C8.357138,1 8.50631681,1.13296711 9.04093041,1.73379105 C9.34996466,2.0810983 9.51572019,2.21639921 9.6,2.21639921 C9.63420249,2.21639921 9.79880602,2.07708948 10.1255401,1.72701358 C10.1377386,1.7139443 10.1377386,1.7139443 10.1499968,1.70081951 C10.6396428,1.17669909 10.8543049,1 11.2,1 C11.557138,1 11.7063168,1.13296711 12.2409304,1.73379105 C12.5499647,2.0810983 12.7157202,2.21639921 12.8,2.21639921 C12.8342025,2.21639921 12.998806,2.07708948 13.3255401,1.72701358 C13.3377386,1.7139443 13.3377386,1.7139443 13.3499968,1.70081951 C13.8396428,1.17669909 14.0543049,1 14.4,1 C14.757138,1 14.9063168,1.13296711 15.4409304,1.73379105 C15.7499647,2.0810983 15.9157202,2.21639921 16,2.21639921 L16,3 C15.60977,3 15.3599901,2.79611268 14.8884814,2.26620895 C14.5662322,1.90405018 14.4310973,1.78360079 14.4,1.78360079 C14.3614224,1.78360079 14.1942986,1.92116872 13.88984,2.24706328 C13.8777668,2.25999 13.8777668,2.25999 13.8656363,2.27298642 C13.3353708,2.84113395 13.1476603,3 12.8,3 C12.40977,3 12.1599901,2.79611268 11.6884814,2.26620895 C11.3662322,1.90405018 11.2310973,1.78360079 11.2,1.78360079 C11.1614224,1.78360079 10.9942986,1.92116872 10.68984,2.24706328 C10.6777668,2.25999 10.6777668,2.25999 10.6656363,2.27298642 C10.1353708,2.84113395 9.94766025,3 9.6,3 C9.20977,3 8.95999009,2.79611268 8.48848135,2.26620895 C8.16623221,1.90405018 8.0310973,1.78360079 8,1.78360079 C7.96142243,1.78360079 7.79429864,1.92116872 7.48983998,2.24706328 C7.47776681,2.25999 7.47776681,2.25999 7.46563635,2.27298642 C6.93537083,2.84113395 6.74766025,3 6.4,3 C6.00977,3 5.75999009,2.79611268 5.28848135,2.26620895 C4.96623221,1.90405018 4.8310973,1.78360079 4.8,1.78360079 C4.76142243,1.78360079 4.59429864,1.92116872 4.28983998,2.24706328 C4.27776681,2.25999 4.27776681,2.25999 4.26563635,2.27298642 C3.73537083,2.84113395 3.54766025,3 3.2,3 C2.80977,3 2.55999009,2.79611268 2.08848135,2.26620895 C1.76623221,1.90405018 1.6310973,1.78360079 1.6,1.78360079 C1.56142243,1.78360079 1.39429864,1.92116872 1.08983998,2.24706328 C1.07776681,2.25999 1.07776681,2.25999 1.06563635,2.27298642 C0.535370834,2.84113395 0.347660251,3 0,3 L0,2.21639921 C0.0342024944,2.21639921 0.198806018,2.07708948 0.525540121,1.72701358 C0.537738591,1.7139443 0.537738591,1.7139443 0.549996754,1.70081951 C1.03964284,1.17669909 1.25430495,1 1.6,1 C1.957138,1 2.10631681,1.13296711 2.64093041,1.73379105 C2.94996466,2.0810983 3.11572019,2.21639921 3.2,2.21639921 Z"/>
        </g>
      </g>
      <g id="Ship" mask="url(#mask-2)">
        <g transform="translate(3 4)">
          <path id="Combined-Shape" fill="#000000" fill-rule="nonzero" d="M-6.21724894e-15,3.5 L2.40188278,3.5 C3.03963383,3.80692378 3.97535526,4 5,4 C6.02464474,4 6.96036617,3.80692378 7.59811723,3.5 L10,3.5 C10,4.88071187 7.76142375,6 5,6 C2.23857625,6 0,4.88071187 0,3.5 Z"/>
          <g id="Rectangle-89">
            <use fill="#FFFFFF" xlink:href="#path-3"/>
            <path stroke="#000000" stroke-width=".5" d="M2.8652395,-0.25 L6.31166992,-0.25 L6.24404406,0.054244777 C6.09633765,0.71876726 6.02295651,1.20357176 6.02295651,1.5 C6.02295651,1.79642824 6.09633765,2.28123274 6.24404406,2.94575522 L6.35222477,3.43245387 L5.89748959,3.2280167 C5.04472315,2.84463498 4.45314228,2.65377974 4.15193706,2.65377974 C3.87856304,2.65377974 3.54975258,2.82396565 3.1718326,3.18158623 L2.88680164,3.45130718 L2.76280798,3.07899332 C2.48002172,2.22987535 2.33764726,1.60639135 2.33764726,1.19423128 C2.33764726,0.762937769 2.49107074,0.318601884 2.79116067,-0.137426828 L2.8652395,-0.25 Z"/>
          </g>
          <rect id="Rectangle-90" width="1" height="1" x="1" y="2" fill="#D32927"/>
          <rect id="Rectangle-90-Copy" width="1" height="1" x="8" y="2" fill="#D32927"/>
        </g>
      </g>
      <g id="Group-27" mask="url(#mask-2)">
        <mask id="mask-5" fill="white">
          <use xlink:href="#path-4"/>
        </mask>
        <use id="Rectangle-81" fill="#D32927" xlink:href="#path-4"/>
        <path id="lion" fill="#F4C600" fill-rule="nonzero" d="M14.2249908,1.47576354 L15.3708835,1.86256418 L13.8389193,2.89680545 L13.6478108,2.30795695 L12.9862681,2.08465058 L12.9973015,2.01665766 L10.6771334,2.06915015 L10.6771334,3.09780649 L8.29251803,3.09780649 L8.29251803,2.12310072 L4.51652644,2.2085304 L4.51652644,2.65037292 L0.95905294,3.15273379 L0.766307636,2.17148496 L3.51652644,1.82769199 L3.51652644,1.64809231 L0.538233756,1.42828201 L0.648665282,0.434398277 L4.51652644,0.753049517 L4.51652644,1.11436598 L4.72992099,0.403050817 L5.68774728,0.690398702 L5.53932662,1.18513422 L9.79999319,1.08873905 L9.45073191,1.04237693 L9.58232098,0.0510725842 L15.1212553,0.786329352 L14.2249908,1.47576354 Z M9.41052317,2.09780649 L9.67713341,2.09780649 L9.67713341,2.09177458 L9.41052317,2.09780649 Z" mask="url(#mask-5)" opacity=".8"/>
      </g>
      <g id="Overlay" stroke="#000000" stroke-opacity=".1" mask="url(#mask-2)">
        <rect width="15" height="11" x=".5" y=".5" style="mix-blend-mode:multiply"/>
      </g>
    </g>
  </g>
</svg>
