<svg xmlns="http://www.w3.org/2000/svg" xmlns:xlink="http://www.w3.org/1999/xlink" viewBox="0 0 16 12">
  <defs>
    <rect id="path-1" width="16" height="12" rx="1"/>
    <path id="path-3" d="M0,0 L16,0 L16,12 L0,12 L0,0 Z"/>
    <mask id="mask-4" width="16" height="12" x="0" y="0" fill="white">
      <use xlink:href="#path-3"/>
    </mask>
  </defs>
  <g id="CA-PE" fill="none" fill-rule="evenodd">
    <g id="Prince-Edward-Island">
      <mask id="mask-2" fill="white">
        <use xlink:href="#path-1"/>
      </mask>
      <use id="Rectangle-77" fill="#FFFFFF" xlink:href="#path-1"/>
      <rect id="Rectangle-81" width="16" height="3" y="1" fill="#D54040" mask="url(#mask-2)"/>
      <path id="lion" fill="#EDAA0C" fill-rule="nonzero" d="M14.2249908,2.47576354 L15.3708835,2.86256418 L13.8389193,3.89680545 L13.6478108,3.30795695 L12.9862681,3.08465058 L12.9973015,3.01665766 L10.6771334,3.06915015 L10.6771334,4 L8.29251803,4 L8.29251803,3.12310072 L4.51652644,3.2085304 L4.51652644,3.65037292 L0.95905294,4 L0.766307636,3.17148496 L3.51652644,2.82769199 L3.51652644,2.64809231 L0.538233756,2.42828201 L0.648665282,1.43439828 L4.51652644,1.75304952 L4.51652644,2.11436598 L4.72992099,1.40305082 L5.68774728,1.6903987 L5.53932662,2.18513422 L9.79999319,2.08873905 L9.45073191,2.04237693 L9.58232098,1.05107258 L15.1212553,1.78632935 L14.2249908,2.47576354 Z M9.41052317,3.09780649 L9.67713341,3.09780649 L9.67713341,3.09177458 L9.41052317,3.09780649 Z" mask="url(#mask-2)"/>
      <g id="Rectangle-95" stroke="#D54040" stroke-dasharray="3 2" stroke-width="2" mask="url(#mask-2)">
        <use mask="url(#mask-4)" xlink:href="#path-3"/>
      </g>
      <rect id="Rectangle-96" width="1" height="8" y="4" fill="#FFFFFF" mask="url(#mask-2)"/>
      <ellipse id="Oval-77" cx="8" cy="9" fill="#44ABA2" mask="url(#mask-2)" rx="5" ry="1"/>
      <rect id="Rectangle-98" width="3" height="3" x="4" y="6" fill="#A4604C" mask="url(#mask-2)"/>
      <rect id="Rectangle-98-Copy" width="1" height="3" x="10" y="6" fill="#A4604C" mask="url(#mask-2)"/>
      <ellipse id="Oval-77-Copy" cx="5.5" cy="6" fill="#44ABA2" mask="url(#mask-2)" rx="2.5" ry="1"/>
      <ellipse id="Oval-77-Copy-2" cx="10.5" cy="6" fill="#44ABA2" mask="url(#mask-2)" rx="1.5" ry="1"/>
      <g id="Overlay" stroke="#000000" stroke-opacity=".1" mask="url(#mask-2)">
        <rect width="15" height="11" x=".5" y=".5" style="mix-blend-mode:multiply"/>
      </g>
    </g>
  </g>
</svg>
