<svg xmlns="http://www.w3.org/2000/svg" xmlns:xlink="http://www.w3.org/1999/xlink" viewBox="0 0 16 12">
  <defs>
    <rect id="path-1" width="16" height="12" rx="1"/>
  </defs>
  <g id="CA-QC" fill="none" fill-rule="evenodd">
    <g id="Quebec">
      <mask id="mask-2" fill="white">
        <use xlink:href="#path-1"/>
      </mask>
      <use id="Rectangle-77" fill="#FFFFFF" xlink:href="#path-1"/>
      <rect id="Rectangle-119-Copy" width="16" height="12" fill="#002495" mask="url(#mask-2)"/>
      <polygon id="Rectangle-119-Copy-21" fill="#FFFFFF" points="7 5 7 0 9 0 9 5 16 5 16 7 9 7 9 12 7 12 7 7 0 7 0 5" mask="url(#mask-2)"/>
      <polygon id="Path-64" fill="#FFFFFF" stroke="#FFFFFF" points="13.156 2.597 12.219 1.3 11.281 2.597 12.219 3.737" mask="url(#mask-2)" opacity=".7"/>
      <polygon id="Path-64-Copy-4" fill="#FFFFFF" stroke="#FFFFFF" points="4.255 2.597 3.318 1.3 2.38 2.597 3.318 3.737" mask="url(#mask-2)" opacity=".7"/>
      <polygon id="Path-64-Copy-6" fill="#FFFFFF" stroke="#FFFFFF" points="13.156 9.597 12.219 8.3 11.281 9.597 12.219 10.737" mask="url(#mask-2)" opacity=".7"/>
      <polygon id="Path-64-Copy-5" fill="#FFFFFF" stroke="#FFFFFF" points="4.255 9.597 3.318 8.3 2.38 9.597 3.318 10.737" mask="url(#mask-2)" opacity=".7"/>
      <g id="Overlay" stroke="#000000" stroke-opacity=".1" mask="url(#mask-2)">
        <rect width="15" height="11" x=".5" y=".5" style="mix-blend-mode:multiply"/>
      </g>
    </g>
  </g>
</svg>
