<svg xmlns="http://www.w3.org/2000/svg" xmlns:xlink="http://www.w3.org/1999/xlink" viewBox="0 0 16 12">
  <defs>
    <rect id="path-1" width="16" height="12" rx="1"/>
  </defs>
  <g id="ET" fill="none" fill-rule="evenodd">
    <g id="Ethiopia">
      <mask id="mask-2" fill="white">
        <use xlink:href="#path-1"/>
      </mask>
      <use id="Rectangle-77" fill="#FFFFFF" xlink:href="#path-1"/>
      <rect id="Rectangle-119-Copy" width="16" height="12" fill="#DA121A" mask="url(#mask-2)"/>
      <rect id="Rectangle-119-Copy-51" width="16" height="8" fill="#FCDD09" mask="url(#mask-2)"/>
      <rect id="Rectangle-119-Copy-52" width="16" height="4" fill="#078930" mask="url(#mask-2)"/>
      <circle id="Oval-15" cx="8" cy="6" r="4" fill="#0F47AF" mask="url(#mask-2)"/>
      <path id="Rectangle-13-Copy" fill="#FCDD09" d="M7.03631814,5.54617549 L6.10837195,5.54617549 L5.65232812,5.40884111 L6.10199403,5.56580472 L6.85271446,6.11123503 L7.03631814,5.54617549 Z M7.54556365,5.54617549 L7.26470653,6.4105648 L8,6.94478677 L8.73529347,6.4105648 L8.45443635,5.54617549 L7.54556365,5.54617549 Z M7.19369039,5.06184592 L7.97720869,2.65048632 L7.97394952,2.5 L8.00002705,2.58026044 L8.02610062,2.50001629 L8.02283771,2.65046624 L8.80632633,5.06185806 L11.3417861,5.06187716 L11.4838999,5.01227467 L11.4156261,5.06187772 L11.5,5.06187835 L11.3559053,5.10526673 L9.30464669,6.59556974 L10.0881287,9.00694114 L10.179219,9.12677144 L10.110946,9.07716736 L10.1370183,9.15741191 L10.0512258,9.03377745 L7.99998967,7.54344354 L5.94874843,9.03373393 L5.86293152,9.15739561 L5.88901026,9.07713556 L5.82074997,9.12672878 L5.91182198,9.00693011 L6.69534692,6.59555009 L4.64412814,5.1052288 L4.5,5.06182563 L4.58439062,5.06182627 L4.51613107,5.01223202 L4.65820918,5.06182682 L7.19369039,5.06184592 Z M7.70293062,5.06184975 L8.29707084,5.06185423 L8.0103197,4.17932496 L8.00000716,3.70316285 L7.9896803,4.17932496 L7.70293062,5.06184975 Z M6.54905183,8.16870013 L6.83728749,7.78954686 L7.58800792,7.24411654 L7.10734102,6.89488606 L6.82058988,7.77741533 L6.54905183,8.16870013 Z M9.45093659,8.16870854 L9.17941012,7.77741533 L8.89266044,6.89489053 L8.41198827,7.24411377 L9.16271251,7.78954686 L9.45093659,8.16870854 Z M9.14728174,6.1112378 L9.89800597,5.56580472 L10.3476763,5.40885473 L9.89162805,5.54617549 L8.96368657,5.54617549 L9.14728174,6.1112378 Z" mask="url(#mask-2)"/>
      <g id="Overlay" stroke="#000000" stroke-opacity=".1" mask="url(#mask-2)">
        <rect width="15" height="11" x=".5" y=".5" style="mix-blend-mode:multiply"/>
      </g>
    </g>
  </g>
</svg>
