<svg xmlns="http://www.w3.org/2000/svg" xmlns:xlink="http://www.w3.org/1999/xlink" viewBox="0 0 16 12">
  <defs>
    <rect id="path-1" width="16" height="12" rx="1"/>
  </defs>
  <g id="FM" fill="none" fill-rule="evenodd">
    <g id="Micronesia,-Federated-States-of">
      <mask id="mask-2" fill="white">
        <use xlink:href="#path-1"/>
      </mask>
      <use id="Rectangle-77" fill="#FFFFFF" xlink:href="#path-1"/>
      <rect id="Rectangle-119-Copy" width="16" height="12" fill="#75B2DD" mask="url(#mask-2)"/>
      <polygon id="Star-2" fill="#FFFFFF" points="8 3.192 7.073 3.853 7.415 2.767 6.5 2.09 7.638 2.08 8 1 8.362 2.08 9.5 2.09 8.585 2.767 8.927 3.853" mask="url(#mask-2)"/>
      <polygon id="Star-2-Copy-4" fill="#FFFFFF" points="8 10.342 7.073 11.003 7.415 9.917 6.5 9.24 7.638 9.23 8 8.15 8.362 9.23 9.5 9.24 8.585 9.917 8.927 11.003" mask="url(#mask-2)" transform="rotate(180 8 9.577)"/>
      <polygon id="Star-2-Copy-5" fill="#FFFFFF" points="4.427 6.766 3.5 7.427 3.842 6.341 2.927 5.663 4.065 5.653 4.427 4.573 4.788 5.653 5.927 5.663 5.012 6.341 5.354 7.427" mask="url(#mask-2)" transform="rotate(-90 4.427 6)"/>
      <polygon id="Star-2-Copy-6" fill="#FFFFFF" points="11.577 6.766 10.65 7.427 10.992 6.341 10.077 5.663 11.215 5.653 11.577 4.573 11.938 5.653 13.077 5.663 12.162 6.341 12.504 7.427" mask="url(#mask-2)" transform="rotate(90 11.577 6)"/>
      <g id="Overlay" stroke="#000000" stroke-opacity=".1" mask="url(#mask-2)">
        <rect width="15" height="11" x=".5" y=".5" style="mix-blend-mode:multiply"/>
      </g>
    </g>
  </g>
</svg>
