<svg xmlns="http://www.w3.org/2000/svg" xmlns:xlink="http://www.w3.org/1999/xlink" viewBox="0 0 16 12">
  <defs>
    <rect id="path-1" width="16" height="12" rx="1"/>
    <path id="path-3" d="M6,5 L16,5 L16,7 L6,7 L6,12 L4,12 L4,7 L0,7 L0,5 L4,5 L4,0 L6,0 L6,5 Z"/>
  </defs>
  <g id="FO" fill="none" fill-rule="evenodd">
    <g id="Faroe-Islands">
      <mask id="mask-2" fill="white">
        <use xlink:href="#path-1"/>
      </mask>
      <use id="Rectangle-77" fill="#FFFFFF" xlink:href="#path-1"/>
      <rect id="Rectangle-74" width="16" height="12" fill="#FFFFFF" mask="url(#mask-2)"/>
      <g id="Rectangle-80" mask="url(#mask-2)">
        <use fill="#ED2939" xlink:href="#path-3"/>
        <path stroke="#0065BD" d="M6.5,4.5 L16.5,4.5 L16.5,7.5 L6.5,7.5 L6.5,12.5 L3.5,12.5 L3.5,7.5 L-0.5,7.5 L-0.5,4.5 L3.5,4.5 L3.5,-0.5 L6.5,-0.5 L6.5,4.5 Z"/>
      </g>
      <g id="Overlay" stroke="#000000" stroke-opacity=".1" mask="url(#mask-2)">
        <rect width="15" height="11" x=".5" y=".5" style="mix-blend-mode:multiply"/>
      </g>
    </g>
  </g>
</svg>
