<svg xmlns="http://www.w3.org/2000/svg" xmlns:xlink="http://www.w3.org/1999/xlink" viewBox="0 0 16 12">
  <defs>
    <rect id="path-1" width="16" height="12" rx="1"/>
  </defs>
  <g id="FR-MQ" fill="none" fill-rule="evenodd">
    <g id="Martinique">
      <mask id="mask-2" fill="white">
        <use xlink:href="#path-1"/>
      </mask>
      <use id="Rectangle-77" fill="#FFFFFF" xlink:href="#path-1"/>
      <rect id="Rectangle-119-Copy" width="16" height="12" fill="#19317D" mask="url(#mask-2)"/>
      <path id="Rectangle-119-Copy-21" fill="#FFFFFF" d="M7,5 L7,0 L9,0 L9,5 L16,5 L16,7 L9,7 L9,12 L7,12 L7,7 L-1,7 L-1,5 L7,5 Z" mask="url(#mask-2)"/>
      <polyline id="Path-64" stroke="#FFFFFF" points="11.91 1.118 14 1.505 11.368 2.492 13.897 3.671 11.112 3.671" mask="url(#mask-2)" opacity=".7"/>
      <polyline id="Path-64-Copy" stroke="#FFFFFF" points="2.91 1.118 5 1.505 2.368 2.492 4.897 3.671 2.112 3.671" mask="url(#mask-2)" opacity=".7"/>
      <polyline id="Path-64-Copy-2" stroke="#FFFFFF" points="2.91 8.118 5 8.505 2.368 9.492 4.897 10.671 2.112 10.671" mask="url(#mask-2)" opacity=".7"/>
      <polyline id="Path-64-Copy-3" stroke="#FFFFFF" points="11.91 8.118 14 8.505 11.368 9.492 13.897 10.671 11.112 10.671" mask="url(#mask-2)" opacity=".7"/>
      <g id="Overlay" stroke="#000000" stroke-opacity=".1" mask="url(#mask-2)">
        <rect width="15" height="11" x=".5" y=".5" style="mix-blend-mode:multiply"/>
      </g>
    </g>
  </g>
</svg>
