<svg xmlns="http://www.w3.org/2000/svg" xmlns:xlink="http://www.w3.org/1999/xlink" viewBox="0 0 16 12">
  <defs>
    <rect id="path-1" width="16" height="12" rx="1"/>
    <rect id="path-3" width="8" height="6"/>
  </defs>
  <g id="FR-TF" fill="none" fill-rule="evenodd">
    <g id="French-Southern-and-Antarctic-Lands">
      <mask id="mask-2" fill="white">
        <use xlink:href="#path-1"/>
      </mask>
      <use id="Rectangle-77" fill="#FFFFFF" xlink:href="#path-1"/>
      <rect id="Rectangle-119-Copy" width="16" height="12" fill="#002395" mask="url(#mask-2)"/>
      <g id="France-Symbol" mask="url(#mask-2)">
        <g id="France">
          <mask id="mask-4" fill="white">
            <use xlink:href="#path-3"/>
          </mask>
          <use id="Rectangle-77" fill="#FFFFFF" xlink:href="#path-3"/>
          <rect id="Rectangle-74" width="2.5" height="6" x="5.5" fill="#ED2939" mask="url(#mask-4)"/>
          <rect id="Rectangle-77" width="3" height="6" x="2.5" fill="#FFFFFF" mask="url(#mask-4)"/>
          <rect id="Rectangle-79" width="2.5" height="6" fill="#002395" mask="url(#mask-4)"/>
        </g>
      </g>
      <g id="Stars" fill="#FFFFFF" mask="url(#mask-2)">
        <g transform="translate(9 6)">
          <rect id="Rectangle-71" width="1" height="1"/>
          <rect id="Rectangle-71-Copy" width="1" height="1" x="6"/>
          <rect id="Rectangle-71-Copy-2" width="1" height="1" x="5" y="4"/>
          <rect id="Rectangle-71-Copy-3" width="1" height="1" x="1" y="4"/>
          <rect id="Rectangle-71-Copy-4" width="1" height="1" x="3" y="5"/>
        </g>
      </g>
      <path id="TAAF" fill="#FFFFFF" d="M13,8 L13,10 L12.5,10.5 L12,10 L12,6 L10,6 L10,5 L15,5 L15,6 L13,6 L13,7 L14,7 L14,8 L13,8 Z M11,8 L12,10 L10,10 L11,8 Z M14,8 L15,10 L13,10 L14,8 Z" mask="url(#mask-2)"/>
      <g id="Overlay" stroke="#000000" stroke-opacity=".1" mask="url(#mask-2)">
        <rect width="15" height="11" x=".5" y=".5" style="mix-blend-mode:multiply"/>
      </g>
    </g>
  </g>
</svg>
