<svg xmlns="http://www.w3.org/2000/svg" xmlns:xlink="http://www.w3.org/1999/xlink" viewBox="0 0 16 12">
  <defs>
    <rect id="path-1" width="16" height="12" rx="1"/>
    <rect id="path-3" width="16" height="12"/>
  </defs>
  <g id="GB" fill="none" fill-rule="evenodd">
    <g id="United-Kingdom">
      <mask id="mask-2" fill="white">
        <use xlink:href="#path-1"/>
      </mask>
      <use id="Rectangle-77" fill="#FFFFFF" xlink:href="#path-1"/>
      <g id="GB-Symbol" mask="url(#mask-2)">
        <g id="UK">
          <mask id="mask-4" fill="white">
            <use xlink:href="#path-3"/>
          </mask>
          <use id="Rectangle-77" fill="#FFFFFF" xlink:href="#path-3"/>
          <g id="St-Andrew" mask="url(#mask-4)">
            <g transform="translate(-2 -2)">
              <rect id="Rectangle-77" width="16" height="12" x="2" y="2" fill="#00247D"/>
              <rect id="Rectangle-3" width="22.174" height="3" x="-1.236" y="6.23" fill="#FFFFFF" transform="rotate(36 9.851 7.73)"/>
              <rect id="Rectangle-3-Copy" width="22.174" height="3" x="-1.236" y="6.23" fill="#FFFFFF" transform="scale(-1 1) rotate(36 0 -22.588)"/>
            </g>
          </g>
          <g id="St-Patrick" mask="url(#mask-4)">
            <g transform="translate(-2 -6)">
              <g id="Group-2" transform="translate(1 5)">
                <rect id="Rectangle-2" width="10.234" height="1" x="-.683" y="3.612" fill="#CF142B" transform="rotate(36 4.434 4.112)"/>
                <rect id="Rectangle-2-Copy" width="10.234" height="1" x="8.317" y="9.212" fill="#CF142B" transform="rotate(36 13.434 9.712)"/>
              </g>
              <g id="Group-2-Copy" transform="rotate(-72 12.941 8.812)">
                <rect id="Rectangle-2-Copy" width="11.098" height="1" x="8.242" y="9.164" fill="#CF142B" transform="rotate(36 13.791 9.664)"/>
                <rect id="Rectangle-2" width="10.234" height="1" x="-.083" y="3.717" fill="#CF142B" transform="rotate(36 5.034 4.217)"/>
              </g>
            </g>
          </g>
          <g id="St-George" mask="url(#mask-4)">
            <path id="Combined-Shape" fill="#FFFFFF" d="M6,4 L6,0 L10,0 L10,4 L16,4 L16,8 L10,8 L10,12 L6,12 L6,8 L0,8 L0,4 L6,4 Z"/>
            <polygon id="Rectangle-112" fill="#CF142B" points="16 5 16 7 9 7 9 12 7 12 7 7 0 7 0 5 7 5 7 0 9 0 9 5"/>
          </g>
        </g>
      </g>
      <g id="Overlay" stroke="#000000" stroke-opacity=".1" mask="url(#mask-2)">
        <rect width="15" height="11" x=".5" y=".5" style="mix-blend-mode:multiply"/>
      </g>
    </g>
  </g>
</svg>
