<svg xmlns="http://www.w3.org/2000/svg" xmlns:xlink="http://www.w3.org/1999/xlink" viewBox="0 0 16 12">
  <defs>
    <rect id="path-1" width="16" height="12" rx="1"/>
    <polygon id="path-3" points="9 5 16 5 16 7 9 7 9 12 7 12 7 7 0 7 0 5 7 5 7 0 9 0"/>
  </defs>
  <g id="GE" fill="none" fill-rule="evenodd">
    <g id="Georgia">
      <mask id="mask-2" fill="white">
        <use xlink:href="#path-1"/>
      </mask>
      <use id="Rectangle-77" fill="#FFFFFF" xlink:href="#path-1"/>
      <g id="Rectangle-112" mask="url(#mask-2)">
        <use fill="#FF0000" xlink:href="#path-3"/>
        <path stroke="#FFFFFF" d="M9.5,4.5 L16.5,4.5 L16.5,7.5 L9.5,7.5 L9.5,12.5 L6.5,12.5 L6.5,7.5 L-0.5,7.5 L-0.5,4.5 L6.5,4.5 L6.5,-0.5 L9.5,-0.5 L9.5,4.5 Z"/>
      </g>
      <path id="Rectangle-143" fill="#FF0000" d="M3,2 L3,1 L4,1 L4,2 L5,2 L5,3 L4,3 L4,4 L3,4 L3,3 L2,3 L2,2 L3,2 Z" mask="url(#mask-2)"/>
      <path id="Rectangle-144" fill="#FF0000" d="M12,2 L12,1 L13,1 L13,2 L14,2 L14,3 L13,3 L13,4 L12,4 L12,3 L11,3 L11,2 L12,2 Z" mask="url(#mask-2)"/>
      <path id="Rectangle-145" fill="#FF0000" d="M12,9 L12,8 L13,8 L13,9 L14,9 L14,10 L13,10 L13,11 L12,11 L12,10 L11,10 L11,9 L12,9 Z" mask="url(#mask-2)"/>
      <path id="Rectangle-146" fill="#FF0000" d="M3,9 L3,8 L4,8 L4,9 L5,9 L5,10 L4,10 L4,11 L3,11 L3,10 L2,10 L2,9 L3,9 Z" mask="url(#mask-2)"/>
      <g id="Overlay" stroke="#000000" stroke-opacity=".1" mask="url(#mask-2)">
        <rect width="15" height="11" x=".5" y=".5" style="mix-blend-mode:multiply"/>
      </g>
    </g>
  </g>
</svg>
