<svg xmlns="http://www.w3.org/2000/svg" xmlns:xlink="http://www.w3.org/1999/xlink" viewBox="0 0 16 12">
  <defs>
    <rect id="path-1" width="16" height="12" rx="1"/>
  </defs>
  <g id="GQ" fill="none" fill-rule="evenodd">
    <g id="Equatorial-Guinea">
      <mask id="mask-2" fill="white">
        <use xlink:href="#path-1"/>
      </mask>
      <use id="Rectangle-77" fill="#FFFFFF" xlink:href="#path-1"/>
      <rect id="Rectangle-119-Copy" width="16" height="12" fill="#FFFFFF" mask="url(#mask-2)"/>
      <rect id="Rectangle-119-Copy-48" width="16" height="4" fill="#3E9A00" mask="url(#mask-2)"/>
      <rect id="Rectangle-119-Copy-49" width="16" height="4" y="8" fill="#E32118" mask="url(#mask-2)"/>
      <polygon id="Rectangle-119-Copy-36" fill="#0073CE" points="0 0 3 6 0 12" mask="url(#mask-2)"/>
      <g id="tree" mask="url(#mask-2)">
        <g transform="translate(6.5 5)">
          <rect id="Rectangle-11-Copy" width="3" height="1" y="1" fill="#73452B" transform="rotate(90 1.5 1.5)"/>
          <polygon id="Rectangle-11-Copy-2" fill="#A36629" points="1.5 0 1.5 3 1 3 1 0"/>
          <rect id="Rectangle-11" width="3" height="1" fill="#009A3B"/>
        </g>
      </g>
      <path id="stars" fill="#FFD700" fill-rule="nonzero" d="M6.67918137,6.1352641 C7.9246967,6.1352641 9.06435087,5.50842458 9.73795703,4.48870479 C9.89016093,4.25829519 9.82676268,3.94812567 9.59635308,3.79592177 C9.36594348,3.64371787 9.05577395,3.70711612 8.90357006,3.93752572 C8.41317604,4.67989495 7.58527139,5.1352641 6.67918137,5.1352641 C6.40303899,5.1352641 6.17918137,5.35912172 6.17918137,5.6352641 C6.17918137,5.91140647 6.40303899,6.1352641 6.67918137,6.1352641 Z" mask="url(#mask-2)" transform="rotate(-152 8 4.924)"/>
      <g id="Overlay" stroke="#000000" stroke-opacity=".1" mask="url(#mask-2)">
        <rect width="15" height="11" x=".5" y=".5" style="mix-blend-mode:multiply"/>
      </g>
    </g>
  </g>
</svg>
