<svg xmlns="http://www.w3.org/2000/svg" xmlns:xlink="http://www.w3.org/1999/xlink" viewBox="0 0 16 12">
  <defs>
    <rect id="path-1" width="16" height="12" rx="1"/>
    <polygon id="path-3" points="0 0 4 0 4 4 2 6 0 4"/>
    <polygon id="path-5" points=".012 .988 2 7 3.988 .988"/>
    <rect id="path-7" width="8" height="6"/>
  </defs>
  <g id="GS" fill="none" fill-rule="evenodd">
    <g id="South-Georgia-and-the-South-Sandwich-Islands-">
      <mask id="mask-2" fill="white">
        <use xlink:href="#path-1"/>
      </mask>
      <use id="Rectangle-77" fill="#FFFFFF" xlink:href="#path-1"/>
      <rect id="Rectangle-119-Copy" width="16" height="12" fill="#00247D" mask="url(#mask-2)"/>
      <polygon id="Rectangle-119-Copy-7" fill="#2D9C4B" points="10 3 14 3 14 7 12 9 10 7" mask="url(#mask-2)"/>
      <g id="Group" mask="url(#mask-2)">
        <g transform="translate(10 3)">
          <mask id="mask-4" fill="white">
            <use xlink:href="#path-3"/>
          </mask>
          <use id="Rectangle-158" fill="#1E5AA6" xlink:href="#path-3"/>
          <g id="Group-16" mask="url(#mask-4)">
            <g fill="#FFFFFF" transform="rotate(45 3.505 1.305)">
              <rect id="Rectangle-159" width="1" height="1" x="2" y="1"/>
              <rect id="Rectangle-159-Copy-2" width="1" height="1" y="1"/>
              <rect id="Rectangle-159-Copy" width="1" height="1" x="4" y="1"/>
              <rect id="Rectangle-159-Copy-3" width="1" height="1" x="3"/>
              <rect id="Rectangle-162" width="1" height="1" x="5" y="2"/>
              <rect id="Rectangle-162-Copy-3" width="1" height="1" x="5"/>
              <rect id="Rectangle-162-Copy" width="1" height="1" x="3" y="2"/>
              <rect id="Rectangle-162-Copy-2" width="1" height="1" x="1" y="2"/>
              <rect id="Rectangle-163" width="1" height="1" x="4" y="3"/>
              <rect id="Rectangle-164" width="1" height="1" x="2" y="3"/>
              <rect id="Rectangle-164-Copy" width="1" height="1" y="3"/>
              <rect id="Rectangle-165" width="1" height="1" x="3" y="4"/>
              <rect id="Rectangle-165-Copy" width="1" height="1" x="1" y="4"/>
              <rect id="Rectangle-166" width="1" height="1" x="5" y="4"/>
              <rect id="Rectangle-167" width="1" height="1" x="2" y="5"/>
              <rect id="Rectangle-168" width="1" height="1" x="4" y="5"/>
              <rect id="Rectangle-168-Copy" width="1" height="1" x="3" y="6"/>
            </g>
          </g>
          <g id="Group-17" mask="url(#mask-4)">
            <g transform="translate(0 -1)">
              <mask id="mask-6" fill="white">
                <use xlink:href="#path-5"/>
              </mask>
              <use id="Path-18" fill="#006B00" xlink:href="#path-5"/>
              <rect id="Rectangle-73" width="2" height="4" x="1" y="1" fill="#FFC900" mask="url(#mask-6)" opacity=".5"/>
            </g>
          </g>
        </g>
      </g>
      <rect id="Rectangle-72" width="1" height="5" x="9" y="3" fill="#8A9396" mask="url(#mask-2)"/>
      <rect id="Rectangle-72-Copy-2" width="2" height="1" x="11" y="1" fill="#923F00" mask="url(#mask-2)"/>
      <rect id="Rectangle-72-Copy-3" width="2" height="1" x="11" y="2" fill="#656263" mask="url(#mask-2)"/>
      <rect id="Rectangle-72-Copy" width="1" height="5" x="14" y="3" fill="#000000" mask="url(#mask-2)"/>
      <path id="Oval-63" fill="#FFBB00" fill-rule="nonzero" d="M13,9.99567921 C13,11.1002487 12.1045695,11.9956792 11,11.9956792 L11,10.9956792 C11.5522847,10.9956792 12,10.547964 12,9.99567921 C12,9.46823049 11.5898657,9.03205506 11.0672464,8.99786719 L11.1325233,8 C12.1753105,8.06821538 13,8.93563902 13,9.99567921 Z M13,9.99567921 C13,11.1002487 12.1045695,11.9956792 11,11.9956792 L11,10.9956792 C11.5522847,10.9956792 12,10.547964 12,9.99567921 C12,9.46823049 11.5898657,9.03205506 11.0672464,8.99786719 L11.1325233,8 C12.1753105,8.06821538 13,8.93563902 13,9.99567921 Z" mask="url(#mask-2)" transform="rotate(-90 12 9.998)"/>
      <g id="GB-Symbol" mask="url(#mask-2)">
        <g id="UK">
          <mask id="mask-8" fill="white">
            <use xlink:href="#path-7"/>
          </mask>
          <use id="Rectangle-77" fill="#FFFFFF" xlink:href="#path-7"/>
          <g id="St-Andrew" mask="url(#mask-8)">
            <g transform="translate(-1 -1)">
              <rect id="Rectangle-77" width="8" height="6" x="1" y="1" fill="#00247D"/>
              <rect id="Rectangle-3" width="11.087" height="1.5" x="-.618" y="3.115" fill="#FFFFFF" transform="rotate(36 4.926 3.865)"/>
              <rect id="Rectangle-3-Copy" width="11.087" height="1.5" x="-.618" y="3.115" fill="#FFFFFF" transform="scale(-1 1) rotate(36 0 -11.294)"/>
            </g>
          </g>
          <g id="St-Patrick" mask="url(#mask-8)">
            <g transform="translate(-1 -3)">
              <g id="Group-2" transform="translate(.5 2.5)">
                <rect id="Rectangle-2" width="5.117" height="1" x="-.342" y="1.806" fill="#CF142B" transform="rotate(36 2.217 2.056)"/>
                <rect id="Rectangle-2-Copy" width="5.117" height="1" x="4.158" y="4.606" fill="#CF142B" transform="rotate(36 6.717 4.856)"/>
              </g>
              <g id="Group-2-Copy" transform="rotate(-72 6.47 4.406)">
                <rect id="Rectangle-2-Copy" width="5.549" height="1" x="4.121" y="4.582" fill="#CF142B" transform="rotate(36 6.896 4.832)"/>
                <rect id="Rectangle-2" width="5.117" height="1" x="-.042" y="1.859" fill="#CF142B" transform="rotate(36 2.517 2.109)"/>
              </g>
            </g>
          </g>
          <g id="St-George" mask="url(#mask-8)">
            <path id="Combined-Shape" fill="#FFFFFF" d="M3,2 L3,0 L5,0 L5,2 L8,2 L8,4 L5,4 L5,6 L3,6 L3,4 L0,4 L0,2 L3,2 Z"/>
            <polygon id="Rectangle-112" fill="#CF142B" points="8 2.5 8 3.5 4.5 3.5 4.5 6 3.5 6 3.5 3.5 0 3.5 0 2.5 3.5 2.5 3.5 0 4.5 0 4.5 2.5"/>
          </g>
        </g>
      </g>
      <g id="Overlay" stroke="#000000" stroke-opacity=".1" mask="url(#mask-2)">
        <rect width="15" height="11" x=".5" y=".5" style="mix-blend-mode:multiply"/>
      </g>
    </g>
  </g>
</svg>
