<svg xmlns="http://www.w3.org/2000/svg" xmlns:xlink="http://www.w3.org/1999/xlink" viewBox="0 0 16 12">
  <defs>
    <rect id="path-1" width="16" height="12" rx="1"/>
  </defs>
  <g id="HN" fill="none" fill-rule="evenodd">
    <g id="Honduras">
      <mask id="mask-2" fill="white">
        <use xlink:href="#path-1"/>
      </mask>
      <use id="Rectangle-77" fill="#FFFFFF" xlink:href="#path-1"/>
      <rect id="Rectangle-77" width="16" height="12" fill="#0073CF" mask="url(#mask-2)"/>
      <rect id="Rectangle-153" width="16" height="4" y="4" fill="#FFFFFF" mask="url(#mask-2)"/>
      <polygon id="Star-2" fill="#0073CF" points="11.29 7.655 10.802 8.003 10.982 7.431 10.5 7.074 11.1 7.069 11.29 6.5 11.48 7.069 12.08 7.074 11.598 7.431 11.778 8.003" mask="url(#mask-2)"/>
      <polygon id="Star-2" fill="#0073CF" points="11.289 5.153 10.801 5.5 10.981 4.929 10.5 4.573 11.099 4.568 11.289 4 11.479 4.568 12.077 4.573 11.596 4.929 11.776 5.5" mask="url(#mask-2)"/>
      <polygon id="Star-2-Copy-9" fill="#0073CF" points="4.29 7.655 3.802 8.003 3.982 7.431 3.5 7.074 4.1 7.069 4.29 6.5 4.48 7.069 5.08 7.074 4.598 7.431 4.778 8.003" mask="url(#mask-2)"/>
      <polygon id="Star-2-Copy-8" fill="#0073CF" points="4.289 5.153 3.801 5.5 3.981 4.929 3.5 4.573 4.099 4.568 4.289 4 4.479 4.568 5.077 4.573 4.596 4.929 4.776 5.5" mask="url(#mask-2)"/>
      <polygon id="Star-2" fill="#0073CF" points="7.999 6.402 7.511 6.749 7.691 6.178 7.21 5.822 7.809 5.817 7.999 5.249 8.189 5.817 8.787 5.822 8.306 6.178 8.486 6.749" mask="url(#mask-2)"/>
      <g id="Overlay" stroke="#000000" stroke-opacity=".1" mask="url(#mask-2)">
        <rect width="15" height="11" x=".5" y=".5" style="mix-blend-mode:multiply"/>
      </g>
    </g>
  </g>
</svg>
