<svg xmlns="http://www.w3.org/2000/svg" xmlns:xlink="http://www.w3.org/1999/xlink" viewBox="0 0 16 12">
  <defs>
    <rect id="path-1" width="16" height="12" rx="1"/>
    <polygon id="path-3" points="0 0 4 0 4 4 2 5 0 4"/>
  </defs>
  <g id="HR" fill="none" fill-rule="evenodd">
    <g id="Croatia">
      <mask id="mask-2" fill="white">
        <use xlink:href="#path-1"/>
      </mask>
      <use id="Rectangle-77" fill="#FFFFFF" xlink:href="#path-1"/>
      <rect id="Rectangle-74" width="16" height="4" y="8" fill="#171796" mask="url(#mask-2)"/>
      <rect id="Rectangle-77" width="16" height="4" fill="#FF0000" mask="url(#mask-2)"/>
      <rect id="Rectangle-78" width="16" height="4" y="4" fill="#FFFFFF" mask="url(#mask-2)"/>
      <g id="Group" mask="url(#mask-2)">
        <g transform="translate(6 3)">
          <mask id="mask-4" fill="white">
            <use xlink:href="#path-3"/>
          </mask>
          <g id="Rectangle-158">
            <use fill="#FF0000" xlink:href="#path-3"/>
            <path stroke="#FF0000" d="M-0.5,-0.5 L4.5,-0.5 L4.5,4.30901699 L2,5.55901699 L-0.5,4.30901699 L-0.5,-0.5 Z"/>
          </g>
          <rect id="Rectangle-159" width="1" height="1" fill="#FFFFFF" mask="url(#mask-4)"/>
          <rect id="Rectangle-160" width="1" height="1" x="2" fill="#FFFFFF" mask="url(#mask-4)"/>
          <rect id="Rectangle-161" width="1" height="1" x="1" y="1" fill="#FFFFFF" mask="url(#mask-4)"/>
          <rect id="Rectangle-162" width="1" height="1" x="3" y="1" fill="#FFFFFF" mask="url(#mask-4)"/>
          <rect id="Rectangle-163" width="1" height="1" x="2" y="2" fill="#FFFFFF" mask="url(#mask-4)"/>
          <rect id="Rectangle-164" width="1" height="1" y="2" fill="#FFFFFF" mask="url(#mask-4)"/>
          <rect id="Rectangle-165" width="1" height="1" x="1" y="3" fill="#FFFFFF" mask="url(#mask-4)"/>
          <rect id="Rectangle-166" width="1" height="1" x="3" y="3" fill="#FFFFFF" mask="url(#mask-4)"/>
          <rect id="Rectangle-167" width="1" height="1" y="4" fill="#FFFFFF" mask="url(#mask-4)"/>
          <rect id="Rectangle-168" width="1" height="1" x="2" y="4" fill="#FFFFFF" mask="url(#mask-4)"/>
        </g>
      </g>
      <rect id="Rectangle-182" width="6" height="1" x="5" y="2" fill="#0093DD" mask="url(#mask-2)"/>
      <g id="Overlay" stroke="#000000" stroke-opacity=".1" mask="url(#mask-2)">
        <rect width="15" height="11" x=".5" y=".5" style="mix-blend-mode:multiply"/>
      </g>
    </g>
  </g>
</svg>
