<svg xmlns="http://www.w3.org/2000/svg" xmlns:xlink="http://www.w3.org/1999/xlink" viewBox="0 0 16 12">
  <defs>
    <rect id="path-1" width="15.957" height="12" rx="1"/>
    <rect id="path-3" width="8" height="6"/>
  </defs>
  <g id="IO" fill="none" fill-rule="evenodd">
    <g id="British-Indian-Ocean-Territory-">
      <mask id="mask-2" fill="white">
        <use xlink:href="#path-1"/>
      </mask>
      <use id="Rectangle-77" fill="#FFFFFF" xlink:href="#path-1"/>
      <rect id="Rectangle-119-Copy" width="16" height="12" fill="#FFFFFF" mask="url(#mask-2)"/>
      <path id="waves" fill="#00247D" fill-rule="nonzero" d="M3.2,1.21639921 C3.23420249,1.21639921 3.39880602,1.07708948 3.72554012,0.727013584 C3.73773859,0.713944301 3.73773859,0.713944301 3.74999675,0.700819507 C4.23964284,0.176699093 4.45430495,0 4.8,0 C5.157138,0 5.30631681,0.13296711 5.84093041,0.733791053 C6.14996466,1.0810983 6.31572019,1.21639921 6.4,1.21639921 C6.43420249,1.21639921 6.59880602,1.07708948 6.92554012,0.727013584 C6.93773859,0.713944301 6.93773859,0.713944301 6.94999675,0.700819507 C7.43964284,0.176699093 7.65430495,0 8,0 C8.357138,0 8.50631681,0.13296711 9.04093041,0.733791053 C9.34996466,1.0810983 9.51572019,1.21639921 9.6,1.21639921 C9.63420249,1.21639921 9.79880602,1.07708948 10.1255401,0.727013584 C10.1377386,0.713944301 10.1377386,0.713944301 10.1499968,0.700819507 C10.6396428,0.176699093 10.8543049,0 11.2,0 C11.557138,0 11.7063168,0.13296711 12.2409304,0.733791053 C12.5499647,1.0810983 12.7157202,1.21639921 12.8,1.21639921 C12.8342025,1.21639921 12.998806,1.07708948 13.3255401,0.727013584 C13.3377386,0.713944301 13.3377386,0.713944301 13.3499968,0.700819507 C13.8396428,0.176699093 14.0543049,0 14.4,0 C14.757138,0 14.9063168,0.13296711 15.4409304,0.733791053 C15.7499647,1.0810983 15.9157202,1.21639921 16,1.21639921 L16,2 C15.60977,2 15.3599901,1.79611268 14.8884814,1.26620895 C14.5662322,0.90405018 14.4310973,0.783600787 14.4,0.783600787 C14.3614224,0.783600787 14.1942986,0.921168717 13.88984,1.24706328 C13.8777668,1.25999 13.8777668,1.25999 13.8656363,1.27298642 C13.3353708,1.84113395 13.1476603,2 12.8,2 C12.40977,2 12.1599901,1.79611268 11.6884814,1.26620895 C11.3662322,0.90405018 11.2310973,0.783600787 11.2,0.783600787 C11.1614224,0.783600787 10.9942986,0.921168717 10.68984,1.24706328 C10.6777668,1.25999 10.6777668,1.25999 10.6656363,1.27298642 C10.1353708,1.84113395 9.94766025,2 9.6,2 C9.20977,2 8.95999009,1.79611268 8.48848135,1.26620895 C8.16623221,0.90405018 8.0310973,0.783600787 8,0.783600787 C7.96142243,0.783600787 7.79429864,0.921168717 7.48983998,1.24706328 C7.47776681,1.25999 7.47776681,1.25999 7.46563635,1.27298642 C6.93537083,1.84113395 6.74766025,2 6.4,2 C6.00977,2 5.75999009,1.79611268 5.28848135,1.26620895 C4.96623221,0.90405018 4.8310973,0.783600787 4.8,0.783600787 C4.76142243,0.783600787 4.59429864,0.921168717 4.28983998,1.24706328 C4.27776681,1.25999 4.27776681,1.25999 4.26563635,1.27298642 C3.73537083,1.84113395 3.54766025,2 3.2,2 C2.80977,2 2.55999009,1.79611268 2.08848135,1.26620895 C1.76623221,0.90405018 1.6310973,0.783600787 1.6,0.783600787 C1.56142243,0.783600787 1.39429864,0.921168717 1.08983998,1.24706328 C1.07776681,1.25999 1.07776681,1.25999 1.06563635,1.27298642 C0.535370834,1.84113395 0.347660251,2 -9.95e-14,2 L-9.95e-14,1.21639921 C0.0342024944,1.21639921 0.198806018,1.07708948 0.525540121,0.727013584 C0.537738591,0.713944301 0.537738591,0.713944301 0.549996754,0.700819507 C1.03964284,0.176699093 1.25430495,0 1.6,0 C1.957138,0 2.10631681,0.13296711 2.64093041,0.733791053 C2.94996466,1.0810983 3.11572019,1.21639921 3.2,1.21639921 Z M3.2,3.21639921 C3.23420249,3.21639921 3.39880602,3.07708948 3.72554012,2.72701358 C3.73773859,2.7139443 3.73773859,2.7139443 3.74999675,2.70081951 C4.23964284,2.17669909 4.45430495,2 4.8,2 C5.157138,2 5.30631681,2.13296711 5.84093041,2.73379105 C6.14996466,3.0810983 6.31572019,3.21639921 6.4,3.21639921 C6.43420249,3.21639921 6.59880602,3.07708948 6.92554012,2.72701358 C6.93773859,2.7139443 6.93773859,2.7139443 6.94999675,2.70081951 C7.43964284,2.17669909 7.65430495,2 8,2 C8.357138,2 8.50631681,2.13296711 9.04093041,2.73379105 C9.34996466,3.0810983 9.51572019,3.21639921 9.6,3.21639921 C9.63420249,3.21639921 9.79880602,3.07708948 10.1255401,2.72701358 C10.1377386,2.7139443 10.1377386,2.7139443 10.1499968,2.70081951 C10.6396428,2.17669909 10.8543049,2 11.2,2 C11.557138,2 11.7063168,2.13296711 12.2409304,2.73379105 C12.5499647,3.0810983 12.7157202,3.21639921 12.8,3.21639921 C12.8342025,3.21639921 12.998806,3.07708948 13.3255401,2.72701358 C13.3377386,2.7139443 13.3377386,2.7139443 13.3499968,2.70081951 C13.8396428,2.17669909 14.0543049,2 14.4,2 C14.757138,2 14.9063168,2.13296711 15.4409304,2.73379105 C15.7499647,3.0810983 15.9157202,3.21639921 16,3.21639921 L16,4 C15.60977,4 15.3599901,3.79611268 14.8884814,3.26620895 C14.5662322,2.90405018 14.4310973,2.78360079 14.4,2.78360079 C14.3614224,2.78360079 14.1942986,2.92116872 13.88984,3.24706328 C13.8777668,3.25999 13.8777668,3.25999 13.8656363,3.27298642 C13.3353708,3.84113395 13.1476603,4 12.8,4 C12.40977,4 12.1599901,3.79611268 11.6884814,3.26620895 C11.3662322,2.90405018 11.2310973,2.78360079 11.2,2.78360079 C11.1614224,2.78360079 10.9942986,2.92116872 10.68984,3.24706328 C10.6777668,3.25999 10.6777668,3.25999 10.6656363,3.27298642 C10.1353708,3.84113395 9.94766025,4 9.6,4 C9.20977,4 8.95999009,3.79611268 8.48848135,3.26620895 C8.16623221,2.90405018 8.0310973,2.78360079 8,2.78360079 C7.96142243,2.78360079 7.79429864,2.92116872 7.48983998,3.24706328 C7.47776681,3.25999 7.47776681,3.25999 7.46563635,3.27298642 C6.93537083,3.84113395 6.74766025,4 6.4,4 C6.00977,4 5.75999009,3.79611268 5.28848135,3.26620895 C4.96623221,2.90405018 4.8310973,2.78360079 4.8,2.78360079 C4.76142243,2.78360079 4.59429864,2.92116872 4.28983998,3.24706328 C4.27776681,3.25999 4.27776681,3.25999 4.26563635,3.27298642 C3.73537083,3.84113395 3.54766025,4 3.2,4 C2.80977,4 2.55999009,3.79611268 2.08848135,3.26620895 C1.76623221,2.90405018 1.6310973,2.78360079 1.6,2.78360079 C1.56142243,2.78360079 1.39429864,2.92116872 1.08983998,3.24706328 C1.07776681,3.25999 1.07776681,3.25999 1.06563635,3.27298642 C0.535370834,3.84113395 0.347660251,4 -9.95e-14,4 L-9.95e-14,3.21639921 C0.0342024944,3.21639921 0.198806018,3.07708948 0.525540121,2.72701358 C0.537738591,2.7139443 0.537738591,2.7139443 0.549996754,2.70081951 C1.03964284,2.17669909 1.25430495,2 1.6,2 C1.957138,2 2.10631681,2.13296711 2.64093041,2.73379105 C2.94996466,3.0810983 3.11572019,3.21639921 3.2,3.21639921 Z M3.2,5.21639921 C3.23420249,5.21639921 3.39880602,5.07708948 3.72554012,4.72701358 C3.73773859,4.7139443 3.73773859,4.7139443 3.74999675,4.70081951 C4.23964284,4.17669909 4.45430495,4 4.8,4 C5.157138,4 5.30631681,4.13296711 5.84093041,4.73379105 C6.14996466,5.0810983 6.31572019,5.21639921 6.4,5.21639921 C6.43420249,5.21639921 6.59880602,5.07708948 6.92554012,4.72701358 C6.93773859,4.7139443 6.93773859,4.7139443 6.94999675,4.70081951 C7.43964284,4.17669909 7.65430495,4 8,4 C8.357138,4 8.50631681,4.13296711 9.04093041,4.73379105 C9.34996466,5.0810983 9.51572019,5.21639921 9.6,5.21639921 C9.63420249,5.21639921 9.79880602,5.07708948 10.1255401,4.72701358 C10.1377386,4.7139443 10.1377386,4.7139443 10.1499968,4.70081951 C10.6396428,4.17669909 10.8543049,4 11.2,4 C11.557138,4 11.7063168,4.13296711 12.2409304,4.73379105 C12.5499647,5.0810983 12.7157202,5.21639921 12.8,5.21639921 C12.8342025,5.21639921 12.998806,5.07708948 13.3255401,4.72701358 C13.3377386,4.7139443 13.3377386,4.7139443 13.3499968,4.70081951 C13.8396428,4.17669909 14.0543049,4 14.4,4 C14.757138,4 14.9063168,4.13296711 15.4409304,4.73379105 C15.7499647,5.0810983 15.9157202,5.21639921 16,5.21639921 L16,6 C15.60977,6 15.3599901,5.79611268 14.8884814,5.26620895 C14.5662322,4.90405018 14.4310973,4.78360079 14.4,4.78360079 C14.3614224,4.78360079 14.1942986,4.92116872 13.88984,5.24706328 C13.8777668,5.25999 13.8777668,5.25999 13.8656363,5.27298642 C13.3353708,5.84113395 13.1476603,6 12.8,6 C12.40977,6 12.1599901,5.79611268 11.6884814,5.26620895 C11.3662322,4.90405018 11.2310973,4.78360079 11.2,4.78360079 C11.1614224,4.78360079 10.9942986,4.92116872 10.68984,5.24706328 C10.6777668,5.25999 10.6777668,5.25999 10.6656363,5.27298642 C10.1353708,5.84113395 9.94766025,6 9.6,6 C9.20977,6 8.95999009,5.79611268 8.48848135,5.26620895 C8.16623221,4.90405018 8.0310973,4.78360079 8,4.78360079 C7.96142243,4.78360079 7.79429864,4.92116872 7.48983998,5.24706328 C7.47776681,5.25999 7.47776681,5.25999 7.46563635,5.27298642 C6.93537083,5.84113395 6.74766025,6 6.4,6 C6.00977,6 5.75999009,5.79611268 5.28848135,5.26620895 C4.96623221,4.90405018 4.8310973,4.78360079 4.8,4.78360079 C4.76142243,4.78360079 4.59429864,4.92116872 4.28983998,5.24706328 C4.27776681,5.25999 4.27776681,5.25999 4.26563635,5.27298642 C3.73537083,5.84113395 3.54766025,6 3.2,6 C2.80977,6 2.55999009,5.79611268 2.08848135,5.26620895 C1.76623221,4.90405018 1.6310973,4.78360079 1.6,4.78360079 C1.56142243,4.78360079 1.39429864,4.92116872 1.08983998,5.24706328 C1.07776681,5.25999 1.07776681,5.25999 1.06563635,5.27298642 C0.535370834,5.84113395 0.347660251,6 -9.95e-14,6 L-9.95e-14,5.21639921 C0.0342024944,5.21639921 0.198806018,5.07708948 0.525540121,4.72701358 C0.537738591,4.7139443 0.537738591,4.7139443 0.549996754,4.70081951 C1.03964284,4.17669909 1.25430495,4 1.6,4 C1.957138,4 2.10631681,4.13296711 2.64093041,4.73379105 C2.94996466,5.0810983 3.11572019,5.21639921 3.2,5.21639921 Z M3.2,7.21639921 C3.23420249,7.21639921 3.39880602,7.07708948 3.72554012,6.72701358 C3.73773859,6.7139443 3.73773859,6.7139443 3.74999675,6.70081951 C4.23964284,6.17669909 4.45430495,6 4.8,6 C5.157138,6 5.30631681,6.13296711 5.84093041,6.73379105 C6.14996466,7.0810983 6.31572019,7.21639921 6.4,7.21639921 C6.43420249,7.21639921 6.59880602,7.07708948 6.92554012,6.72701358 C6.93773859,6.7139443 6.93773859,6.7139443 6.94999675,6.70081951 C7.43964284,6.17669909 7.65430495,6 8,6 C8.357138,6 8.50631681,6.13296711 9.04093041,6.73379105 C9.34996466,7.0810983 9.51572019,7.21639921 9.6,7.21639921 C9.63420249,7.21639921 9.79880602,7.07708948 10.1255401,6.72701358 C10.1377386,6.7139443 10.1377386,6.7139443 10.1499968,6.70081951 C10.6396428,6.17669909 10.8543049,6 11.2,6 C11.557138,6 11.7063168,6.13296711 12.2409304,6.73379105 C12.5499647,7.0810983 12.7157202,7.21639921 12.8,7.21639921 C12.8342025,7.21639921 12.998806,7.07708948 13.3255401,6.72701358 C13.3377386,6.7139443 13.3377386,6.7139443 13.3499968,6.70081951 C13.8396428,6.17669909 14.0543049,6 14.4,6 C14.757138,6 14.9063168,6.13296711 15.4409304,6.73379105 C15.7499647,7.0810983 15.9157202,7.21639921 16,7.21639921 L16,8 C15.60977,8 15.3599901,7.79611268 14.8884814,7.26620895 C14.5662322,6.90405018 14.4310973,6.78360079 14.4,6.78360079 C14.3614224,6.78360079 14.1942986,6.92116872 13.88984,7.24706328 C13.8777668,7.25999 13.8777668,7.25999 13.8656363,7.27298642 C13.3353708,7.84113395 13.1476603,8 12.8,8 C12.40977,8 12.1599901,7.79611268 11.6884814,7.26620895 C11.3662322,6.90405018 11.2310973,6.78360079 11.2,6.78360079 C11.1614224,6.78360079 10.9942986,6.92116872 10.68984,7.24706328 C10.6777668,7.25999 10.6777668,7.25999 10.6656363,7.27298642 C10.1353708,7.84113395 9.94766025,8 9.6,8 C9.20977,8 8.95999009,7.79611268 8.48848135,7.26620895 C8.16623221,6.90405018 8.0310973,6.78360079 8,6.78360079 C7.96142243,6.78360079 7.79429864,6.92116872 7.48983998,7.24706328 C7.47776681,7.25999 7.47776681,7.25999 7.46563635,7.27298642 C6.93537083,7.84113395 6.74766025,8 6.4,8 C6.00977,8 5.75999009,7.79611268 5.28848135,7.26620895 C4.96623221,6.90405018 4.8310973,6.78360079 4.8,6.78360079 C4.76142243,6.78360079 4.59429864,6.92116872 4.28983998,7.24706328 C4.27776681,7.25999 4.27776681,7.25999 4.26563635,7.27298642 C3.73537083,7.84113395 3.54766025,8 3.2,8 C2.80977,8 2.55999009,7.79611268 2.08848135,7.26620895 C1.76623221,6.90405018 1.6310973,6.78360079 1.6,6.78360079 C1.56142243,6.78360079 1.39429864,6.92116872 1.08983998,7.24706328 C1.07776681,7.25999 1.07776681,7.25999 1.06563635,7.27298642 C0.535370834,7.84113395 0.347660251,8 -9.95e-14,8 L-9.95e-14,7.21639921 C0.0342024944,7.21639921 0.198806018,7.07708948 0.525540121,6.72701358 C0.537738591,6.7139443 0.537738591,6.7139443 0.549996754,6.70081951 C1.03964284,6.17669909 1.25430495,6 1.6,6 C1.957138,6 2.10631681,6.13296711 2.64093041,6.73379105 C2.94996466,7.0810983 3.11572019,7.21639921 3.2,7.21639921 Z M3.2,9.21639921 C3.23420249,9.21639921 3.39880602,9.07708948 3.72554012,8.72701358 C3.73773859,8.7139443 3.73773859,8.7139443 3.74999675,8.70081951 C4.23964284,8.17669909 4.45430495,8 4.8,8 C5.157138,8 5.30631681,8.13296711 5.84093041,8.73379105 C6.14996466,9.0810983 6.31572019,9.21639921 6.4,9.21639921 C6.43420249,9.21639921 6.59880602,9.07708948 6.92554012,8.72701358 C6.93773859,8.7139443 6.93773859,8.7139443 6.94999675,8.70081951 C7.43964284,8.17669909 7.65430495,8 8,8 C8.357138,8 8.50631681,8.13296711 9.04093041,8.73379105 C9.34996466,9.0810983 9.51572019,9.21639921 9.6,9.21639921 C9.63420249,9.21639921 9.79880602,9.07708948 10.1255401,8.72701358 C10.1377386,8.7139443 10.1377386,8.7139443 10.1499968,8.70081951 C10.6396428,8.17669909 10.8543049,8 11.2,8 C11.557138,8 11.7063168,8.13296711 12.2409304,8.73379105 C12.5499647,9.0810983 12.7157202,9.21639921 12.8,9.21639921 C12.8342025,9.21639921 12.998806,9.07708948 13.3255401,8.72701358 C13.3377386,8.7139443 13.3377386,8.7139443 13.3499968,8.70081951 C13.8396428,8.17669909 14.0543049,8 14.4,8 C14.757138,8 14.9063168,8.13296711 15.4409304,8.73379105 C15.7499647,9.0810983 15.9157202,9.21639921 16,9.21639921 L16,10 C15.60977,10 15.3599901,9.79611268 14.8884814,9.26620895 C14.5662322,8.90405018 14.4310973,8.78360079 14.4,8.78360079 C14.3614224,8.78360079 14.1942986,8.92116872 13.88984,9.24706328 C13.8777668,9.25999 13.8777668,9.25999 13.8656363,9.27298642 C13.3353708,9.84113395 13.1476603,10 12.8,10 C12.40977,10 12.1599901,9.79611268 11.6884814,9.26620895 C11.3662322,8.90405018 11.2310973,8.78360079 11.2,8.78360079 C11.1614224,8.78360079 10.9942986,8.92116872 10.68984,9.24706328 C10.6777668,9.25999 10.6777668,9.25999 10.6656363,9.27298642 C10.1353708,9.84113395 9.94766025,10 9.6,10 C9.20977,10 8.95999009,9.79611268 8.48848135,9.26620895 C8.16623221,8.90405018 8.0310973,8.78360079 8,8.78360079 C7.96142243,8.78360079 7.79429864,8.92116872 7.48983998,9.24706328 C7.47776681,9.25999 7.47776681,9.25999 7.46563635,9.27298642 C6.93537083,9.84113395 6.74766025,10 6.4,10 C6.00977,10 5.75999009,9.79611268 5.28848135,9.26620895 C4.96623221,8.90405018 4.8310973,8.78360079 4.8,8.78360079 C4.76142243,8.78360079 4.59429864,8.92116872 4.28983998,9.24706328 C4.27776681,9.25999 4.27776681,9.25999 4.26563635,9.27298642 C3.73537083,9.84113395 3.54766025,10 3.2,10 C2.80977,10 2.55999009,9.79611268 2.08848135,9.26620895 C1.76623221,8.90405018 1.6310973,8.78360079 1.6,8.78360079 C1.56142243,8.78360079 1.39429864,8.92116872 1.08983998,9.24706328 C1.07776681,9.25999 1.07776681,9.25999 1.06563635,9.27298642 C0.535370834,9.84113395 0.347660251,10 -9.95e-14,10 L-9.95e-14,9.21639921 C0.0342024944,9.21639921 0.198806018,9.07708948 0.525540121,8.72701358 C0.537738591,8.7139443 0.537738591,8.7139443 0.549996754,8.70081951 C1.03964284,8.17669909 1.25430495,8 1.6,8 C1.957138,8 2.10631681,8.13296711 2.64093041,8.73379105 C2.94996466,9.0810983 3.11572019,9.21639921 3.2,9.21639921 Z M3.2,11.2163992 C3.23420249,11.2163992 3.39880602,11.0770895 3.72554012,10.7270136 C3.73773859,10.7139443 3.73773859,10.7139443 3.74999675,10.7008195 C4.23964284,10.1766991 4.45430495,10 4.8,10 C5.157138,10 5.30631681,10.1329671 5.84093041,10.7337911 C6.14996466,11.0810983 6.31572019,11.2163992 6.4,11.2163992 C6.43420249,11.2163992 6.59880602,11.0770895 6.92554012,10.7270136 C6.93773859,10.7139443 6.93773859,10.7139443 6.94999675,10.7008195 C7.43964284,10.1766991 7.65430495,10 8,10 C8.357138,10 8.50631681,10.1329671 9.04093041,10.7337911 C9.34996466,11.0810983 9.51572019,11.2163992 9.6,11.2163992 C9.63420249,11.2163992 9.79880602,11.0770895 10.1255401,10.7270136 C10.1377386,10.7139443 10.1377386,10.7139443 10.1499968,10.7008195 C10.6396428,10.1766991 10.8543049,10 11.2,10 C11.557138,10 11.7063168,10.1329671 12.2409304,10.7337911 C12.5499647,11.0810983 12.7157202,11.2163992 12.8,11.2163992 C12.8342025,11.2163992 12.998806,11.0770895 13.3255401,10.7270136 C13.3377386,10.7139443 13.3377386,10.7139443 13.3499968,10.7008195 C13.8396428,10.1766991 14.0543049,10 14.4,10 C14.757138,10 14.9063168,10.1329671 15.4409304,10.7337911 C15.7499647,11.0810983 15.9157202,11.2163992 16,11.2163992 L16,12 C15.60977,12 15.3599901,11.7961127 14.8884814,11.2662089 C14.5662322,10.9040502 14.4310973,10.7836008 14.4,10.7836008 C14.3614224,10.7836008 14.1942986,10.9211687 13.88984,11.2470633 C13.8777668,11.25999 13.8777668,11.25999 13.8656363,11.2729864 C13.3353708,11.841134 13.1476603,12 12.8,12 C12.40977,12 12.1599901,11.7961127 11.6884814,11.2662089 C11.3662322,10.9040502 11.2310973,10.7836008 11.2,10.7836008 C11.1614224,10.7836008 10.9942986,10.9211687 10.68984,11.2470633 C10.6777668,11.25999 10.6777668,11.25999 10.6656363,11.2729864 C10.1353708,11.841134 9.94766025,12 9.6,12 C9.20977,12 8.95999009,11.7961127 8.48848135,11.2662089 C8.16623221,10.9040502 8.0310973,10.7836008 8,10.7836008 C7.96142243,10.7836008 7.79429864,10.9211687 7.48983998,11.2470633 C7.47776681,11.25999 7.47776681,11.25999 7.46563635,11.2729864 C6.93537083,11.841134 6.74766025,12 6.4,12 C6.00977,12 5.75999009,11.7961127 5.28848135,11.2662089 C4.96623221,10.9040502 4.8310973,10.7836008 4.8,10.7836008 C4.76142243,10.7836008 4.59429864,10.9211687 4.28983998,11.2470633 C4.27776681,11.25999 4.27776681,11.25999 4.26563635,11.2729864 C3.73537083,11.841134 3.54766025,12 3.2,12 C2.80977,12 2.55999009,11.7961127 2.08848135,11.2662089 C1.76623221,10.9040502 1.6310973,10.7836008 1.6,10.7836008 C1.56142243,10.7836008 1.39429864,10.9211687 1.08983998,11.2470633 C1.07776681,11.25999 1.07776681,11.25999 1.06563635,11.2729864 C0.535370834,11.841134 0.347660251,12 -9.95e-14,12 L-9.95e-14,11.2163992 C0.0342024944,11.2163992 0.198806018,11.0770895 0.525540121,10.7270136 C0.537738591,10.7139443 0.537738591,10.7139443 0.549996754,10.7008195 C1.03964284,10.1766991 1.25430495,10 1.6,10 C1.957138,10 2.10631681,10.1329671 2.64093041,10.7337911 C2.94996466,11.0810983 3.11572019,11.2163992 3.2,11.2163992 Z" mask="url(#mask-2)"/>
      <g id="tree" mask="url(#mask-2)">
        <g transform="translate(8 1)">
          <rect id="Rectangle-23" width="1" height="8" x="2.97" y="3" fill="#A24300"/>
          <rect id="Rectangle-24" width="2.992" height="2" x="1.973" y="7" fill="#CC0000"/>
          <ellipse id="Oval-31" cx="3.469" cy="2.5" fill="#006D00" rx="2.493" ry="2.5"/>
        </g>
      </g>
      <g id="GB-Symbol" mask="url(#mask-2)">
        <g id="UK">
          <mask id="mask-4" fill="white">
            <use xlink:href="#path-3"/>
          </mask>
          <use id="Rectangle-77" fill="#FFFFFF" xlink:href="#path-3"/>
          <g id="St-Andrew" mask="url(#mask-4)">
            <g transform="translate(-1 -1)">
              <rect id="Rectangle-77" width="8" height="6" x="1" y="1" fill="#00247D"/>
              <rect id="Rectangle-3" width="11.087" height="1.5" x="-.618" y="3.115" fill="#FFFFFF" transform="rotate(36 4.926 3.865)"/>
              <rect id="Rectangle-3-Copy" width="11.087" height="1.5" x="-.618" y="3.115" fill="#FFFFFF" transform="scale(-1 1) rotate(36 0 -11.294)"/>
            </g>
          </g>
          <g id="St-Patrick" mask="url(#mask-4)">
            <g transform="translate(-1 -3)">
              <g id="Group-2" transform="translate(.5 2.5)">
                <rect id="Rectangle-2" width="5.117" height="1" x="-.342" y="1.806" fill="#CF142B" transform="rotate(36 2.217 2.056)"/>
                <rect id="Rectangle-2-Copy" width="5.117" height="1" x="4.158" y="4.606" fill="#CF142B" transform="rotate(36 6.717 4.856)"/>
              </g>
              <g id="Group-2-Copy" transform="rotate(-72 6.47 4.406)">
                <rect id="Rectangle-2-Copy" width="5.549" height="1" x="4.121" y="4.582" fill="#CF142B" transform="rotate(36 6.896 4.832)"/>
                <rect id="Rectangle-2" width="5.117" height="1" x="-.042" y="1.859" fill="#CF142B" transform="rotate(36 2.517 2.109)"/>
              </g>
            </g>
          </g>
          <g id="St-George" mask="url(#mask-4)">
            <path id="Combined-Shape" fill="#FFFFFF" d="M3,2 L3,0 L5,0 L5,2 L8,2 L8,4 L5,4 L5,6 L3,6 L3,4 L0,4 L0,2 L3,2 Z"/>
            <polygon id="Rectangle-112" fill="#CF142B" points="8 2.5 8 3.5 4.5 3.5 4.5 6 3.5 6 3.5 3.5 0 3.5 0 2.5 3.5 2.5 3.5 0 4.5 0 4.5 2.5"/>
          </g>
        </g>
      </g>
      <g id="Overlay" stroke="#000000" stroke-opacity=".1" mask="url(#mask-2)">
        <rect width="15" height="11" x=".5" y=".5" style="mix-blend-mode:multiply"/>
      </g>
    </g>
  </g>
</svg>
