<svg xmlns="http://www.w3.org/2000/svg" xmlns:xlink="http://www.w3.org/1999/xlink" viewBox="0 0 16 12">
  <defs>
    <rect id="path-1" width="16" height="12" rx="1"/>
  </defs>
  <g id="JM" fill="none" fill-rule="evenodd">
    <g id="Jamaica">
      <mask id="mask-2" fill="white">
        <use xlink:href="#path-1"/>
      </mask>
      <use id="Rectangle-77" fill="#FFFFFF" xlink:href="#path-1"/>
      <rect id="Rectangle-77" width="16" height="12" fill="#009B3A" mask="url(#mask-2)"/>
      <polygon id="Rectangle-420" fill="#181A1A" points="0 0 7 6 0 12" mask="url(#mask-2)"/>
      <polygon id="Rectangle-421" fill="#181A1A" points="9 0 16 6 9 12" mask="url(#mask-2)" transform="matrix(-1 0 0 1 25 0)"/>
      <path id="Rectangle-114" fill="#FED100" d="M6.81818182,5.99999996 L0,0.999999959 L0,1.03437604e-08 L1,-3.74683395e-08 L8,5.1333333 L15,-3.74683395e-08 L16,1.03437604e-08 L16,0.999999959 L9.18181818,5.99999996 L16,11 L16,12 L15,12 L8,6.86666663 L1,12 L0,12 L0,11 L6.81818182,5.99999996 Z" mask="url(#mask-2)"/>
      <g id="Overlay" stroke="#000000" stroke-opacity=".1" mask="url(#mask-2)">
        <rect width="15" height="11" x=".5" y=".5" style="mix-blend-mode:multiply"/>
      </g>
    </g>
  </g>
</svg>
