<svg xmlns="http://www.w3.org/2000/svg" xmlns:xlink="http://www.w3.org/1999/xlink" viewBox="0 0 16 12">
  <defs>
    <rect id="path-1" width="16" height="12" rx="1"/>
  </defs>
  <g id="KE" fill="none" fill-rule="evenodd">
    <g id="Kenya">
      <mask id="mask-2" fill="white">
        <use xlink:href="#path-1"/>
      </mask>
      <use id="Rectangle-77" fill="#FFFFFF" xlink:href="#path-1"/>
      <rect id="Rectangle-119-Copy" width="16" height="3" y="9" fill="#006600" mask="url(#mask-2)"/>
      <rect id="Rectangle-119-Copy-62" width="16" height="4" y="4" fill="#BB0000" mask="url(#mask-2)"/>
      <rect id="Rectangle-119-Copy-63" width="16" height="3" fill="#000000" mask="url(#mask-2)"/>
      <g id="shield" mask="url(#mask-2)">
        <g transform="translate(5 1)">
          <rect id="Rectangle-13" width="9.075" height="1" x="-1.538" y="3.883" fill="#FFFFFF" transform="rotate(120 3 4.383)"/>
          <rect id="Rectangle-13-Copy-2" width="9.075" height="1" x="-1.538" y="3.883" fill="#FFFFFF" transform="scale(1 -1) rotate(-60 -4.592 0)"/>
          <path id="Oval-17-Copy-3" fill="#FFFFFF" d="M3,8.5 C3.34351509,8.5 4.5,6.93299662 4.5,5 C4.5,3.06700338 3.37639946,1.5 3,1.5 C2.62360054,1.5 1.5,3.06700338 1.5,5 C1.5,6.93299662 2.65648491,8.5 3,8.5 Z"/>
          <path id="Combined-Shape" fill="#BB0000" d="M3,8.5 C3.34351509,8.5 4.5,6.93299662 4.5,5 C4.5,3.06700338 3.37639946,1.5 3,1.5 C2.62360054,1.5 1.5,3.06700338 1.5,5 C1.5,6.93299662 2.65648491,8.5 3,8.5 Z M3,5.5 C3.13807119,5.5 3.25,5.27614237 3.25,5 C3.25,4.72385763 3.13807119,4.5 3,4.5 C2.86192881,4.5 2.75,4.72385763 2.75,5 C2.75,5.27614237 2.86192881,5.5 3,5.5 Z M3,8.5 C3.13807119,8.5 3.25,7.82842712 3.25,7 C3.25,6.17157288 3.13807119,5.5 3,5.5 C2.86192881,5.5 2.75,6.17157288 2.75,7 C2.75,7.82842712 2.86192881,8.5 3,8.5 Z M3,4.5 C3.13807119,4.5 3.25,3.82842712 3.25,3 C3.25,2.17157288 3.13807119,1.5 3,1.5 C2.86192881,1.5 2.75,2.17157288 2.75,3 C2.75,3.82842712 2.86192881,4.5 3,4.5 Z"/>
          <path id="Combined-Shape" fill="#000000" d="M1.88896495,6.96928061 C1.66504951,6.40825551 1.5,5.7302444 1.5,5 C1.5,4.26009034 1.6646293,3.57380581 1.88896495,3.00850443 C2.11330059,3.57380581 2.2779299,4.26009034 2.2779299,5 C2.2779299,5.7302444 2.11288038,6.40825551 1.88896495,6.96928061 Z"/>
          <path id="Combined-Shape-Copy" fill="#000000" d="M3.88896495,6.96928061 C3.66504951,6.40825551 3.5,5.7302444 3.5,5 C3.5,4.26009034 3.6646293,3.57380581 3.88896495,3.00850443 C4.11330059,3.57380581 4.2779299,4.26009034 4.2779299,5 C4.2779299,5.7302444 4.11288038,6.40825551 3.88896495,6.96928061 Z" transform="matrix(-1 0 0 1 8 0)"/>
        </g>
      </g>
      <g id="Overlay" stroke="#000000" stroke-opacity=".1" mask="url(#mask-2)">
        <rect width="15" height="11" x=".5" y=".5" style="mix-blend-mode:multiply"/>
      </g>
    </g>
  </g>
</svg>
