<svg xmlns="http://www.w3.org/2000/svg" xmlns:xlink="http://www.w3.org/1999/xlink" viewBox="0 0 16 12">
  <defs>
    <rect id="path-1" width="16" height="12" rx="1"/>
  </defs>
  <g id="KM" fill="none" fill-rule="evenodd">
    <g id="Comoros">
      <mask id="mask-2" fill="white">
        <use xlink:href="#path-1"/>
      </mask>
      <use id="Rectangle-77" fill="#FFFFFF" xlink:href="#path-1"/>
      <rect id="Rectangle-119-Copy" width="16" height="3" y="9" fill="#3A75C4" mask="url(#mask-2)"/>
      <rect id="Rectangle-119-Copy-42" width="16" height="3" y="6" fill="#CE1126" mask="url(#mask-2)"/>
      <rect id="Rectangle-119-Copy-43" width="16" height="3" y="3" fill="#FFFFFF" mask="url(#mask-2)"/>
      <rect id="Rectangle-119-Copy-44" width="16" height="3" fill="#FFC61E" mask="url(#mask-2)"/>
      <polygon id="Path-2" fill="#3D8E33" points="0 0 8 6 0 12" mask="url(#mask-2)"/>
      <path id="Combined-Shape" fill="#FFFFFF" d="M3.33333333,4.02765281 C2.38742889,4.18634551 1.66666667,5.00900124 1.66666667,6 C1.66666667,6.99099876 2.38742889,7.81365449 3.33333333,7.97234719 C3.22493051,7.99053373 3.11357074,8 3,8 C1.8954305,8 1,7.1045695 1,6 C1,4.8954305 1.8954305,4 3,4 C3.11357074,4 3.22493051,4.00946627 3.33333333,4.02765281 Z" mask="url(#mask-2)"/>
      <path id="Line" fill="#FFFFFF" fill-rule="nonzero" d="M3,4.25 L3,5.75 L3.5,5.75 L3.5,4.25 L3,4.25 Z M3,6.25 L3,7.75 L3.5,7.75 L3.5,6.25 L3,6.25 Z" mask="url(#mask-2)"/>
      <g id="Overlay" stroke="#000000" stroke-opacity=".1" mask="url(#mask-2)">
        <rect width="15" height="11" x=".5" y=".5" style="mix-blend-mode:multiply"/>
      </g>
    </g>
  </g>
</svg>
