<svg xmlns="http://www.w3.org/2000/svg" xmlns:xlink="http://www.w3.org/1999/xlink" viewBox="0 0 16 12">
  <defs>
    <rect id="path-1" width="16" height="12" rx="1"/>
    <rect id="path-3" width="22" height="4" y="-.008"/>
  </defs>
  <g id="KN" fill="none" fill-rule="evenodd">
    <g id="Saint-Kitts-and-Nevis">
      <mask id="mask-2" fill="white">
        <use xlink:href="#path-1"/>
      </mask>
      <use id="Rectangle-77" fill="#FFFFFF" xlink:href="#path-1"/>
      <rect id="Rectangle-119-Copy" width="16" height="12" fill="#009E49" mask="url(#mask-2)"/>
      <polygon id="Rectangle-119-Copy-146" fill="#CE1126" points="16 0 16 12 0 12" mask="url(#mask-2)"/>
      <g id="band" mask="url(#mask-2)">
        <g transform="rotate(-36.87 15.511 6.996)">
          <g id="Rectangle-169">
            <use fill="#000000" xlink:href="#path-3"/>
            <rect width="23" height="5" x="-.5" y="-.508" stroke="#FCD116"/>
          </g>
          <polygon id="Star-2-Copy-7" fill="#FFFFFF" points="10 2.915 8.764 3.797 9.22 2.349 8 1.445 9.518 1.432 10 -.008 10.482 1.432 12 1.445 10.78 2.349 11.236 3.797"/>
          <polygon id="Star-2-Copy-11" fill="#FFFFFF" points="15 2.915 13.764 3.797 14.22 2.349 13 1.445 14.518 1.432 15 -.008 15.482 1.432 17 1.445 15.78 2.349 16.236 3.797"/>
          <polygon id="Star-2-Copy-10" fill="#FFFFFF" points="5 2.915 3.764 3.797 4.22 2.349 3 1.445 4.518 1.432 5 -.008 5.482 1.432 7 1.445 5.78 2.349 6.236 3.797"/>
        </g>
      </g>
      <g id="Overlay" stroke="#000000" stroke-opacity=".1" mask="url(#mask-2)">
        <rect width="15" height="11" x=".5" y=".5" style="mix-blend-mode:multiply"/>
      </g>
    </g>
  </g>
</svg>
