<svg xmlns="http://www.w3.org/2000/svg" xmlns:xlink="http://www.w3.org/1999/xlink" viewBox="0 0 16 12">
  <defs>
    <rect id="path-1" width="16" height="12" rx="1"/>
  </defs>
  <g id="KR" fill="none" fill-rule="evenodd">
    <g id="Korea,-Republic-of">
      <mask id="mask-2" fill="white">
        <use xlink:href="#path-1"/>
      </mask>
      <use id="Rectangle-77" fill="#FFFFFF" xlink:href="#path-1"/>
      <rect id="Rectangle-119-Copy" width="16" height="12" fill="#FFFFFF" mask="url(#mask-2)"/>
      <g id="Group-8" fill="#666666" mask="url(#mask-2)">
        <g transform="rotate(40 .131 6.247)">
          <rect id="Rectangle-33" width="2" height="2"/>
          <rect id="Rectangle-33-Copy" width="2" height="2" x="10"/>
        </g>
      </g>
      <g id="Group-8-Copy" fill="#666666" mask="url(#mask-2)">
        <g transform="scale(-1 1) rotate(40 -7.869 -15.732)">
          <rect id="Rectangle-33" width="2" height="2"/>
          <rect id="Rectangle-33-Copy" width="2" height="2" x="10"/>
        </g>
      </g>
      <g id="ball" mask="url(#mask-2)">
        <g transform="translate(5 3)">
          <path id="Combined-Shape" fill="#0047A0" d="M8.53e-14,3 C8.53e-14,4.65685425 1.34314575,6 3,6 C4.65685425,6 6,4.65685425 6,3 L8.53e-14,3 Z"/>
          <path id="Combined-Shape-Copy-3" fill="#CD2E3A" d="M8.53e-14,0 C8.53e-14,1.65685425 1.34314575,3 3,3 C4.65685425,3 6,1.65685425 6,0 L8.53e-14,0 Z" transform="matrix(1 0 0 -1 0 3)"/>
        </g>
      </g>
      <g id="Overlay" stroke="#000000" stroke-opacity=".1" mask="url(#mask-2)">
        <rect width="15" height="11" x=".5" y=".5" style="mix-blend-mode:multiply"/>
      </g>
    </g>
  </g>
</svg>
