<svg xmlns="http://www.w3.org/2000/svg" xmlns:xlink="http://www.w3.org/1999/xlink" viewBox="0 0 16 12">
  <defs>
    <rect id="path-1" width="16" height="12" rx="1"/>
  </defs>
  <g id="LK" fill="none" fill-rule="evenodd">
    <g id="Sri-Lanka">
      <mask id="mask-2" fill="white">
        <use xlink:href="#path-1"/>
      </mask>
      <use id="Rectangle-77" fill="#FFFFFF" xlink:href="#path-1"/>
      <rect id="Rectangle-119-Copy" width="16" height="12" fill="#FFBE29" mask="url(#mask-2)"/>
      <rect id="Rectangle-42" width="2" height="10" x="1" y="1" fill="#00534E" mask="url(#mask-2)"/>
      <rect id="Rectangle-42-Copy" width="2" height="10" x="3" y="1" fill="#EB7400" mask="url(#mask-2)"/>
      <rect id="Rectangle-43" width="9" height="10" x="6" y="1" fill="#8D153A" mask="url(#mask-2)"/>
      <path id="Combined-Shape" fill="#FFBE29" d="M14,7 L14,9 L12,9 L12,7 L10,7 L10,9 L9,9 L9,7 L10,7 L13,5 L12,5 L12,4 L13,4 L14,4 L14,7 Z M11,6 L9,6 L9,3 L11,3 L11,6 Z M9,7 L8,7 L8,8 L7,8 L7,3 L8,3 L8,6 Z" mask="url(#mask-2)" opacity=".7"/>
      <circle id="Oval-48" cx="6.5" cy="1.5" r="1" fill="#FFBE29" mask="url(#mask-2)"/>
      <circle id="Oval-48-Copy" cx="14.5" cy="1.5" r="1" fill="#FFBE29" mask="url(#mask-2)"/>
      <circle id="Oval-48-Copy-3" cx="6.5" cy="10.5" r="1" fill="#FFBE29" mask="url(#mask-2)"/>
      <circle id="Oval-48-Copy-2" cx="14.5" cy="10.5" r="1" fill="#FFBE29" mask="url(#mask-2)"/>
      <g id="Overlay" stroke="#000000" stroke-opacity=".1" mask="url(#mask-2)">
        <rect width="15" height="11" x=".5" y=".5" style="mix-blend-mode:multiply"/>
      </g>
    </g>
  </g>
</svg>
