<svg xmlns="http://www.w3.org/2000/svg" xmlns:xlink="http://www.w3.org/1999/xlink" viewBox="0 0 16 12">
  <defs>
    <rect id="path-1" width="16" height="12" rx="1"/>
  </defs>
  <g id="MA" fill="none" fill-rule="evenodd">
    <g id="Morocco">
      <mask id="mask-2" fill="white">
        <use xlink:href="#path-1"/>
      </mask>
      <use id="Rectangle-77" fill="#FFFFFF" xlink:href="#path-1"/>
      <rect id="Rectangle-119-Copy" width="16" height="12" fill="#C1272D" mask="url(#mask-2)"/>
      <path id="Rectangle-13-Copy" fill="#006233" d="M7.44932465,5.71585569 L6.91906969,5.71585569 L6.65847321,5.63849771 L6.91542516,5.72691248 L7.34440826,6.03414353 L7.44932465,5.71585569 Z M7.74032208,5.71585569 L7.57983231,6.20275059 L8,6.50366819 L8.42016769,6.20275059 L8.25967792,5.71585569 L7.74032208,5.71585569 Z M7.53925165,5.44304158 L7.9869764,4.08476623 L7.98511401,4 L8.00001546,4.04520926 L8.01491464,4.00000918 L8.01305012,4.08475492 L8.4607579,5.44304842 L9.90959204,5.44305918 L9.99079995,5.41511899 L9.95178634,5.44305949 L10,5.44305985 L9.91766017,5.46749974 L8.7455124,6.30696053 L9.19321639,7.66524253 L9.24526803,7.73274078 L9.20625484,7.7047997 L9.22115334,7.75 L9.17212904,7.68035894 L7.9999941,6.84088074 L6.82785625,7.68033443 L6.77881801,7.74999082 L6.79372015,7.70478179 L6.75471427,7.73271675 L6.80675542,7.66523632 L7.25448396,6.30694946 L6.08235893,5.46747838 L6,5.44303015 L6.04822321,5.44303051 L6.00921776,5.41509497 L6.09040525,5.44303082 L7.53925165,5.44304158 Z M7.83024607,5.44304626 L8.16975476,5.44304626 L8.00589697,4.94593345 L8.00000409,4.67771992 L7.99410303,4.94593345 L7.83024607,5.44304626 Z M7.17088676,7.19307649 L7.33559285,6.9795063 L7.76457596,6.67227524 L7.48990915,6.47556002 L7.32605136,6.97267283 L7.17088676,7.19307649 Z M8.82910662,7.19308123 L8.67394864,6.97267283 L8.51009168,6.47556254 L8.23542187,6.67227369 L8.66440715,6.9795063 L8.82910662,7.19308123 Z M8.65558956,6.03414509 L9.08457484,5.72691248 L9.34152932,5.63850538 L9.08093031,5.71585569 L8.55067804,5.71585569 L8.65558956,6.03414509 Z" mask="url(#mask-2)"/>
      <g id="Overlay" stroke="#000000" stroke-opacity=".1" mask="url(#mask-2)">
        <rect width="15" height="11" x=".5" y=".5" style="mix-blend-mode:multiply"/>
      </g>
    </g>
  </g>
</svg>
