<svg xmlns="http://www.w3.org/2000/svg" xmlns:xlink="http://www.w3.org/1999/xlink" viewBox="0 0 16 12">
  <defs>
    <rect id="path-1" width="16" height="12" rx="1"/>
    <circle id="path-3" cx="8" cy="6" r="2"/>
  </defs>
  <g id="MK" fill="none" fill-rule="evenodd">
    <g id="Macedonia">
      <mask id="mask-2" fill="white">
        <use xlink:href="#path-1"/>
      </mask>
      <use id="Rectangle-77" fill="#FFFFFF" xlink:href="#path-1"/>
      <rect id="Rectangle-77" width="16" height="12" fill="#D20000" mask="url(#mask-2)"/>
      <g id="Rectangle-218-+-Rectangle-219" fill="#FFE600" mask="url(#mask-2)">
        <polygon id="Rectangle-218" points="0 0 1 0 8 6 0 1"/>
        <polygon id="Rectangle-219" points="8 0 9 0 16 6 8 1" transform="matrix(-1 0 0 1 24 0)"/>
      </g>
      <g id="Rectangle-218-+-Rectangle-220" fill="#FFE600" mask="url(#mask-2)">
        <g transform="matrix(1 0 0 -1 0 12)">
          <polygon id="Rectangle-218" points="0 0 1 0 8 6 0 1"/>
          <polygon id="Rectangle-219" points="8 0 9 0 16 6 8 1" transform="matrix(-1 0 0 1 24 0)"/>
        </g>
      </g>
      <polygon id="Rectangle-222" fill="#FFE600" points="7 0 9 0 8 4" mask="url(#mask-2)"/>
      <polygon id="Rectangle-223" fill="#FFE600" points="7 8 9 8 8 12" mask="url(#mask-2)" transform="matrix(1 0 0 -1 0 20)"/>
      <polygon id="Rectangle-224" fill="#FFE600" points="10 6 16 5 16 7" mask="url(#mask-2)"/>
      <polygon id="Rectangle-225" fill="#FFE600" points="0 6 6 5 6 7" mask="url(#mask-2)" transform="matrix(-1 0 0 1 6 0)"/>
      <g id="Oval-10" mask="url(#mask-2)">
        <use fill="#FFF800" xlink:href="#path-3"/>
        <circle cx="8" cy="6" r="2.25" stroke="#D20000" stroke-width=".5"/>
      </g>
      <g id="Overlay" stroke="#000000" stroke-opacity=".1" mask="url(#mask-2)">
        <rect width="15" height="11" x=".5" y=".5" style="mix-blend-mode:multiply"/>
      </g>
    </g>
  </g>
</svg>
