<svg xmlns="http://www.w3.org/2000/svg" xmlns:xlink="http://www.w3.org/1999/xlink" viewBox="0 0 16 12">
  <defs>
    <rect id="path-1" width="16" height="12" rx="1"/>
  </defs>
  <g id="MY" fill="none" fill-rule="evenodd">
    <g id="Malaysia">
      <mask id="mask-2" fill="white">
        <use xlink:href="#path-1"/>
      </mask>
      <use id="Rectangle-77" fill="#FFFFFF" xlink:href="#path-1"/>
      <rect id="Rectangle-119-Copy" width="16" height="12" fill="#CC0001" mask="url(#mask-2)"/>
      <rect id="Rectangle-37" width="16" height="1" y="1" fill="#FFFFFF" mask="url(#mask-2)"/>
      <rect id="Rectangle-37-Copy" width="16" height="1" y="3" fill="#FFFFFF" mask="url(#mask-2)"/>
      <rect id="Rectangle-37-Copy-2" width="16" height="1" y="5" fill="#FFFFFF" mask="url(#mask-2)"/>
      <rect id="Rectangle-37-Copy-3" width="16" height="1" y="7" fill="#FFFFFF" mask="url(#mask-2)"/>
      <rect id="Rectangle-37-Copy-4" width="16" height="1" y="9" fill="#FFFFFF" mask="url(#mask-2)"/>
      <rect id="Rectangle-37-Copy-5" width="16" height="1" y="11" fill="#FFFFFF" mask="url(#mask-2)"/>
      <rect id="Rectangle-36" width="8" height="6" fill="#010066" mask="url(#mask-2)"/>
      <circle id="Oval-34" cx="5" cy="3" r="1" fill="#FFCC00" mask="url(#mask-2)"/>
      <path id="Combined-Shape" fill="#FFCC00" d="M4.66930453,1.89804594 C4.37240444,1.5764256 3.94722801,1.375 3.4750061,1.375 C2.57754339,1.375 1.8500061,2.10253728 1.8500061,3 C1.8500061,3.89746272 2.57754339,4.625 3.4750061,4.625 C3.94722801,4.625 4.37240444,4.4235744 4.66930453,4.10195406 C4.3113714,4.64308185 3.69736705,5 3,5 C1.8954305,5 1,4.1045695 1,3 C1,1.8954305 1.8954305,1 3,1 C3.69736705,1 4.3113714,1.35691815 4.66930453,1.89804594 Z" mask="url(#mask-2)"/>
      <g id="Overlay" stroke="#000000" stroke-opacity=".1" mask="url(#mask-2)">
        <rect width="15" height="11" x=".5" y=".5" style="mix-blend-mode:multiply"/>
      </g>
    </g>
  </g>
</svg>
