<svg xmlns="http://www.w3.org/2000/svg" xmlns:xlink="http://www.w3.org/1999/xlink" viewBox="0 0 16 12">
  <defs>
    <polygon id="path-1" points="0 0 12 7 7 7 12 12 0 12"/>
    <polygon id="path-3" points="0 0 12 7 7 7 12 12 0 12"/>
  </defs>
  <g id="NP" fill="none" fill-rule="evenodd">
    <g id="Nepal">
      <mask id="mask-2" fill="white">
        <use xlink:href="#path-1"/>
      </mask>
      <g id="Rectangle-119-Copy">
        <use fill="#DC143C" xlink:href="#path-1"/>
        <path stroke="#003893" d="M0.5,0.8705185 L0.5,11.5 L10.7928932,11.5 L5.79289322,6.5 L10.1505397,6.5 L0.5,0.8705185 Z"/>
      </g>
      <circle id="Oval-44-Copy" cx="2.589" cy="8.5" r="1.5" fill="#FFFFFF" mask="url(#mask-2)"/>
      <path id="Combined-Shape" fill="#FFFFFF" d="M3.44481573,4.89297572 C3.76932942,4.66725003 4.00044781,4.31662128 4.0685461,3.91071429 C4.08218602,3.9920164 4.08928571,4.07553623 4.08928571,4.16071429 C4.08928571,4.98914141 3.41771284,5.66071429 2.58928571,5.66071429 C1.76085859,5.66071429 1.08928571,4.98914141 1.08928571,4.16071429 C1.08928571,4.07553623 1.09638541,3.9920164 1.11002532,3.91071429 C1.17812362,4.31662128 1.40924201,4.66725003 1.7337557,4.89297572 C1.64207311,4.74188743 1.58928571,4.56457778 1.58928571,4.37493896 C1.58928571,3.82265422 2.03700096,3.37493896 2.58928571,3.37493896 C3.14157046,3.37493896 3.58928571,3.82265422 3.58928571,4.37493896 C3.58928571,4.56457778 3.53649832,4.74188743 3.44481573,4.89297572 Z" mask="url(#mask-2)"/>
      <mask id="mask-4" fill="white">
        <use xlink:href="#path-3"/>
      </mask>
    </g>
  </g>
</svg>
