<svg xmlns="http://www.w3.org/2000/svg" xmlns:xlink="http://www.w3.org/1999/xlink" viewBox="0 0 16 12">
  <defs>
    <rect id="path-1" width="16" height="12" rx="1"/>
  </defs>
  <g id="PF" fill="none" fill-rule="evenodd">
    <g id="French-Polynesia-">
      <mask id="mask-2" fill="white">
        <use xlink:href="#path-1"/>
      </mask>
      <use id="Rectangle-77" fill="#FFFFFF" xlink:href="#path-1"/>
      <rect id="Rectangle-119-Copy" width="16" height="12" fill="#FFFFFF" mask="url(#mask-2)"/>
      <rect id="Rectangle-119-Copy-127" width="16" height="3" y="9" fill="#CE1126" mask="url(#mask-2)"/>
      <rect id="Rectangle-119-Copy-128" width="16" height="3" fill="#CE1126" mask="url(#mask-2)"/>
      <path id="Combined-Shape" fill="#083D9C" d="M5,6 C5,7.65685425 6.34314575,9 8,9 C9.65685425,9 11,7.65685425 11,6 L5,6 Z" mask="url(#mask-2)"/>
      <path id="Combined-Shape" fill="#FF9C10" d="M5,6 C5,4.34314575 6.34314575,3 8,3 C9.65685425,3 11,4.34314575 11,6 L5,6 Z" mask="url(#mask-2)"/>
      <polygon id="Combined-Shape" fill="#CE1126" points="9 6 9 3 7 3 7 6 6 6 6 7 10 7 10 6" mask="url(#mask-2)"/>
      <g id="Overlay" stroke="#000000" stroke-opacity=".1" mask="url(#mask-2)">
        <rect width="15" height="11" x=".5" y=".5" style="mix-blend-mode:multiply"/>
      </g>
    </g>
  </g>
</svg>
