<svg xmlns="http://www.w3.org/2000/svg" xmlns:xlink="http://www.w3.org/1999/xlink" viewBox="0 0 16 12">
  <defs>
    <rect id="path-1" width="16" height="12" rx="1"/>
  </defs>
  <g id="PK" fill="none" fill-rule="evenodd">
    <g id="Pakistan">
      <mask id="mask-2" fill="white">
        <use xlink:href="#path-1"/>
      </mask>
      <use id="Rectangle-77" fill="#FFFFFF" xlink:href="#path-1"/>
      <rect id="Rectangle-119-Copy" width="16" height="12" fill="#FFFFFF" mask="url(#mask-2)"/>
      <rect id="Rectangle-119-Copy-92" width="12" height="12" x="4" fill="#01411C" mask="url(#mask-2)"/>
      <g id="Group-9" fill="#FFFFFF" mask="url(#mask-2)">
        <g transform="rotate(-41 9.775 -4.11)">
          <polygon id="Star-2" points="5 4.104 4.073 4.765 4.415 3.679 3.5 3.002 4.638 2.991 5 1.912 5.362 2.991 6.5 3.002 5.585 3.679 5.927 4.765"/>
          <path id="Combined-Shape" d="M5.06013798,0.366094665 C4.85019552,0.322764638 4.63273674,0.299999952 4.40996099,0.299999952 C2.64264976,0.299999952 1.20996094,1.73268877 1.20996094,3.5 C1.20996094,5.26731123 2.64264976,6.70000005 4.40996099,6.70000005 C4.63273674,6.70000005 4.85019552,6.67723536 5.06013798,6.63390534 C4.59040497,6.86820333 4.06059386,7 3.5,7 C1.56700338,7 0,5.43299662 0,3.5 C0,1.56700338 1.56700338,0 3.5,0 C4.06059386,0 4.59040497,0.131796665 5.06013798,0.366094665 Z"/>
        </g>
      </g>
      <g id="Overlay" stroke="#000000" stroke-opacity=".1" mask="url(#mask-2)">
        <rect width="15" height="11" x=".5" y=".5" style="mix-blend-mode:multiply"/>
      </g>
    </g>
  </g>
</svg>
