<svg xmlns="http://www.w3.org/2000/svg" xmlns:xlink="http://www.w3.org/1999/xlink" viewBox="0 0 16 12">
  <defs>
    <rect id="path-1" width="16" height="12" rx="1"/>
    <path id="path-3" d="M6,8 C6,9.1045695 5.1045695,10 4,10 C2.8954305,10 2,9.1045695 2,8 L2,4 L6,4 L6,8 Z"/>
  </defs>
  <g id="RS" fill="none" fill-rule="evenodd">
    <g id="Serbia">
      <mask id="mask-2" fill="white">
        <use xlink:href="#path-1"/>
      </mask>
      <use id="Rectangle-77" fill="#FFFFFF" xlink:href="#path-1"/>
      <rect id="Rectangle-74" width="16" height="4" fill="#C6363C" mask="url(#mask-2)"/>
      <rect id="Rectangle-77" width="16" height="4" y="8" fill="#FFFFFF" mask="url(#mask-2)"/>
      <rect id="Rectangle-78" width="16" height="4" y="4" fill="#0C4076" mask="url(#mask-2)"/>
      <g id="Combined-Shape" mask="url(#mask-2)">
        <use fill="#C6363C" xlink:href="#path-3"/>
        <path stroke="#FFFFFF" stroke-width=".5" d="M5.75,4.25 L2.25,4.25 L2.25,8 C2.25,8.96649831 3.03350169,9.75 4,9.75 C4.96649831,9.75 5.75,8.96649831 5.75,8 L5.75,4.25 Z"/>
      </g>
      <polygon id="Rectangle-178" fill="#FFFFFF" points="3 5 5 5 5 6 4.5 7.5 5 9 3 9 3.499 7.5 3 6" mask="url(#mask-2)"/>
      <path id="Path-20" fill="#EDB92E" fill-rule="nonzero" d="M3.27302932,3.71679796 L2.86096549,3.5 L3.70832912,3.5 L3.22832966,3.85999813 C3.24272016,3.81066 3.25653179,3.76235117 3.26976625,3.71508116 C3.29093468,3.63942404 3.31010293,3.56843633 3.32788026,3.5 C3.43774218,3.07707089 3.49448301,2.75158198 3.49961679,2.53200099 C3.29938939,2.5851986 3.03262186,2.70507147 2.70769777,2.89423084 L3.27302932,3.71679796 Z M1.30022276,2.61185454 L1.72334516,2.33079263 C2.54932418,1.78213049 3.19429185,1.5 3.70832912,1.5 C4.68389039,1.5 4.68389039,2.44095736 4.18832857,4.14000187 L4.0833276,4.5 L2.59790193,4.5 L1.30022276,2.61185454 Z" mask="url(#mask-2)"/>
      <path id="Path-20-Copy" fill="#EDB92E" fill-rule="nonzero" d="M5.27302932,3.71679796 L4.86096549,3.5 L5.70832912,3.5 L5.22832966,3.85999813 C5.24272016,3.81066 5.25653179,3.76235117 5.26976625,3.71508116 C5.29093468,3.63942404 5.31010293,3.56843633 5.32788026,3.5 C5.43774218,3.07707089 5.49448301,2.75158198 5.49961679,2.53200099 C5.29938939,2.5851986 5.03262186,2.70507147 4.70769777,2.89423084 L5.27302932,3.71679796 Z M3.30022276,2.61185454 L3.72334516,2.33079263 C4.54932418,1.78213049 5.19429185,1.5 5.70832912,1.5 C6.68389039,1.5 6.68389039,2.44095736 6.18832857,4.14000187 L6.0833276,4.5 L4.59790193,4.5 L3.30022276,2.61185454 Z" mask="url(#mask-2)" transform="matrix(-1 0 0 1 9.815 0)"/>
      <g id="Overlay" stroke="#000000" stroke-opacity=".1" mask="url(#mask-2)">
        <rect width="15" height="11" x=".5" y=".5" style="mix-blend-mode:multiply"/>
      </g>
    </g>
  </g>
</svg>
