<svg xmlns="http://www.w3.org/2000/svg" xmlns:xlink="http://www.w3.org/1999/xlink" viewBox="0 0 16 12">
  <defs>
    <rect id="path-1" width="16" height="12" rx="1"/>
    <rect id="path-3" width="4" height="4" x="6" y="4" rx="1"/>
  </defs>
  <g id="SM" fill="none" fill-rule="evenodd">
    <g id="San-Marino">
      <mask id="mask-2" fill="white">
        <use xlink:href="#path-1"/>
      </mask>
      <use id="Rectangle-77" fill="#FFFFFF" xlink:href="#path-1"/>
      <rect id="Rectangle-388" width="16" height="6" y="6" fill="#5EB6E4" mask="url(#mask-2)"/>
      <g id="Rectangle-389" mask="url(#mask-2)">
        <use fill="#A0CFEB" xlink:href="#path-3"/>
        <rect width="3" height="3" x="6.5" y="4.5" stroke="#D99F31" rx="1"/>
      </g>
      <rect id="Rectangle-183" width="2" height="1" x="7" y="3" fill="#D99F31" mask="url(#mask-2)"/>
      <path id="Oval-8" fill="#658D5C" fill-rule="nonzero" d="M4.90968342,4.35684953 C4.00219648,6.06358425 4.65011481,8.18282963 6.35684953,9.09031658 C8.06358425,9.99780352 10.1828296,9.34988519 11.0903166,7.64315047 C11.6424649,6.60471043 11.6319364,5.37839928 11.0916766,4.35876768 L10.2080517,4.82696323 C10.5945084,5.55632242 10.6020218,6.4314449 10.207369,7.17367891 C9.55916402,8.39277513 8.04541732,8.85557394 6.82632109,8.20736898 C5.60722487,7.55916402 5.14442606,6.04541732 5.79263102,4.82632109 L4.90968342,4.35684953 Z" mask="url(#mask-2)"/>
      <g id="Overlay" stroke="#000000" stroke-opacity=".1" mask="url(#mask-2)">
        <rect width="15" height="11" x=".5" y=".5" style="mix-blend-mode:multiply"/>
      </g>
    </g>
  </g>
</svg>
