<svg xmlns="http://www.w3.org/2000/svg" xmlns:xlink="http://www.w3.org/1999/xlink" viewBox="0 0 16 12">
  <defs>
    <rect id="path-1" width="16" height="12" rx="1"/>
    <polygon id="path-3" points="10 3 14 3 14 7 12 9 10 7"/>
    <rect id="path-4" width="8" height="6"/>
  </defs>
  <g id="TC" fill="none" fill-rule="evenodd">
    <g id="Turks-and-Caicos-Islands">
      <mask id="mask-2" fill="white">
        <use xlink:href="#path-1"/>
      </mask>
      <use id="Rectangle-77" fill="#FFFFFF" xlink:href="#path-1"/>
      <rect id="Rectangle-119" width="16" height="12" fill="#FFFFFF" mask="url(#mask-2)"/>
      <rect id="Rectangle-119-Copy" width="16" height="12" fill="#00247D" mask="url(#mask-2)"/>
      <g id="Rectangle-119-Copy-7" mask="url(#mask-2)">
        <use fill="#FDC300" xlink:href="#path-3"/>
        <path stroke="#FFFFFF" stroke-width=".5" d="M10.25,3.25 L10.25,6.89644661 L12,8.64644661 L13.75,6.89644661 L13.75,3.25 L10.25,3.25 Z"/>
      </g>
      <rect id="Rectangle-506" width="1" height="1" x="11.5" y="6.5" fill="#2D9C4B" mask="url(#mask-2)"/>
      <rect id="Rectangle-506-Copy-8" width="1" height="1" x="10.5" y="4.5" fill="#FF927F" mask="url(#mask-2)"/>
      <rect id="Rectangle-506-Copy-9" width="1" height="1" x="12.5" y="4.5" fill="#B95A1E" mask="url(#mask-2)"/>
      <g id="GB-Symbol" mask="url(#mask-2)">
        <g id="UK">
          <mask id="mask-5" fill="white">
            <use xlink:href="#path-4"/>
          </mask>
          <use id="Rectangle-77" fill="#FFFFFF" xlink:href="#path-4"/>
          <g id="St-Andrew" mask="url(#mask-5)">
            <g transform="translate(-1 -1)">
              <rect id="Rectangle-77" width="8" height="6" x="1" y="1" fill="#00247D"/>
              <rect id="Rectangle-3" width="11.087" height="1.5" x="-.618" y="3.115" fill="#FFFFFF" transform="rotate(36 4.926 3.865)"/>
              <rect id="Rectangle-3-Copy" width="11.087" height="1.5" x="-.618" y="3.115" fill="#FFFFFF" transform="scale(-1 1) rotate(36 0 -11.294)"/>
            </g>
          </g>
          <g id="St-Patrick" mask="url(#mask-5)">
            <g transform="translate(-1 -3)">
              <g id="Group-2" transform="translate(.5 2.5)">
                <rect id="Rectangle-2" width="5.117" height="1" x="-.342" y="1.806" fill="#CF142B" transform="rotate(36 2.217 2.056)"/>
                <rect id="Rectangle-2-Copy" width="5.117" height="1" x="4.158" y="4.606" fill="#CF142B" transform="rotate(36 6.717 4.856)"/>
              </g>
              <g id="Group-2-Copy" transform="rotate(-72 6.47 4.406)">
                <rect id="Rectangle-2-Copy" width="5.549" height="1" x="4.121" y="4.582" fill="#CF142B" transform="rotate(36 6.896 4.832)"/>
                <rect id="Rectangle-2" width="5.117" height="1" x="-.042" y="1.859" fill="#CF142B" transform="rotate(36 2.517 2.109)"/>
              </g>
            </g>
          </g>
          <g id="St-George" mask="url(#mask-5)">
            <path id="Combined-Shape" fill="#FFFFFF" d="M3,2 L3,0 L5,0 L5,2 L8,2 L8,4 L5,4 L5,6 L3,6 L3,4 L0,4 L0,2 L3,2 Z"/>
            <polygon id="Rectangle-112" fill="#CF142B" points="8 2.5 8 3.5 4.5 3.5 4.5 6 3.5 6 3.5 3.5 0 3.5 0 2.5 3.5 2.5 3.5 0 4.5 0 4.5 2.5"/>
          </g>
        </g>
      </g>
      <g id="Overlay" stroke="#000000" stroke-opacity=".1" mask="url(#mask-2)">
        <rect width="15" height="11" x=".5" y=".5" style="mix-blend-mode:multiply"/>
      </g>
    </g>
  </g>
</svg>
