<svg xmlns="http://www.w3.org/2000/svg" xmlns:xlink="http://www.w3.org/1999/xlink" viewBox="0 0 16 12">
  <defs>
    <rect id="path-1" width="16" height="12" rx="1"/>
  </defs>
  <g id="TM" fill="none" fill-rule="evenodd">
    <g id="Turkmenistan-">
      <mask id="mask-2" fill="white">
        <use xlink:href="#path-1"/>
      </mask>
      <use id="Rectangle-77" fill="#FFFFFF" xlink:href="#path-1"/>
      <rect id="Rectangle-119-Copy" width="16" height="12" fill="#28AE66" mask="url(#mask-2)"/>
      <path id="Combined-Shape" fill="#FFFFFF" d="M11.8836462,1.70489549 C11.7336873,1.67394547 11.5783596,1.65768498 11.4192341,1.65768498 C10.1568689,1.65768498 9.13351973,2.68103414 9.13351973,3.9433993 C9.13351973,5.20576446 10.1568689,6.22911362 11.4192341,6.22911362 C11.5783596,6.22911362 11.7336873,6.21285313 11.8836462,6.18190311 C11.5481226,6.34925883 11.1696861,6.4433993 10.7692619,6.4433993 C9.38855005,6.4433993 8.26926192,5.32411118 8.26926192,3.9433993 C8.26926192,2.56268743 9.38855005,1.4433993 10.7692619,1.4433993 C11.1696861,1.4433993 11.5481226,1.53753978 11.8836462,1.70489549 Z" mask="url(#mask-2)" transform="scale(-1 1) rotate(-41 0 30.894)"/>
      <rect id="Rectangle-48" width="3" height="12" x="3" fill="#CA3745" mask="url(#mask-2)"/>
      <rect id="Rectangle-49" width="2" height="3" x="7.769" y="1.171" fill="#FFFFFF" mask="url(#mask-2)" opacity=".5" transform="rotate(41 8.769 2.67)"/>
      <g id="Overlay" stroke="#000000" stroke-opacity=".1" mask="url(#mask-2)">
        <rect width="15" height="11" x=".5" y=".5" style="mix-blend-mode:multiply"/>
      </g>
    </g>
  </g>
</svg>
