<svg xmlns="http://www.w3.org/2000/svg" xmlns:xlink="http://www.w3.org/1999/xlink" viewBox="0 0 16 12">
  <defs>
    <rect id="path-1" width="16" height="12" rx="1"/>
  </defs>
  <g id="TR" fill="none" fill-rule="evenodd">
    <g id="Turkey">
      <mask id="mask-2" fill="white">
        <use xlink:href="#path-1"/>
      </mask>
      <use id="Rectangle-77" fill="#FFFFFF" xlink:href="#path-1"/>
      <rect id="Rectangle-77" width="16" height="12" fill="#E30A17" mask="url(#mask-2)"/>
      <g id="Group-21" fill="#FFFFFF" mask="url(#mask-2)">
        <g transform="translate(3 2)">
          <path id="Combined-Shape" d="M5.40921202,1.52077893 C5.11002594,1.40462629 4.78467617,1.34090909 4.44444444,1.34090909 C2.97168511,1.34090909 1.77777778,2.53481642 1.77777778,4.00757576 C1.77777778,5.48033509 2.97168511,6.67424242 4.44444444,6.67424242 C4.77251037,6.67424242 5.0867396,6.61500048 5.37701784,6.50663088 C4.8080845,6.98474439 4.07403689,7.27272727 3.27272727,7.27272727 C1.46524991,7.27272727 0,5.80747736 0,4 C0,2.19252264 1.46524991,0.727272727 3.27272727,0.727272727 C4.08923541,0.727272727 4.83590582,1.02628362 5.40921202,1.52077893 Z"/>
          <polygon id="Star" points="6.797 4.569 6.149 5.522 6.18 4.34 5.092 3.965 6.182 3.662 6.158 2.478 6.801 3.473 7.874 3.115 7.181 4.033 7.868 4.997"/>
        </g>
      </g>
      <g id="Overlay" stroke="#000000" stroke-opacity=".1" mask="url(#mask-2)">
        <rect width="15" height="11" x=".5" y=".5" style="mix-blend-mode:multiply"/>
      </g>
    </g>
  </g>
</svg>
