<svg xmlns="http://www.w3.org/2000/svg" xmlns:xlink="http://www.w3.org/1999/xlink" viewBox="0 0 16 12">
  <defs>
    <rect id="path-1" width="16" height="12" rx="1"/>
    <rect id="path-3" width="16" height="4"/>
    <path id="path-5" d="M8,8 C10.209139,8 12,6.209139 12,4 C12,1.790861 10.209139,0 8,0 C5.790861,0 4,1.790861 4,4 C4,6.209139 5.790861,8 8,8 Z"/>
    <mask id="mask-6" width="8" height="8" x="0" y="0" fill="white">
      <use xlink:href="#path-5"/>
    </mask>
  </defs>
  <g id="VE" fill="none" fill-rule="evenodd">
    <g id="Venezuela">
      <mask id="mask-2" fill="white">
        <use xlink:href="#path-1"/>
      </mask>
      <use id="Rectangle-77" fill="#FFFFFF" xlink:href="#path-1"/>
      <rect id="Rectangle-119-Copy" width="16" height="12" fill="#CF142B" mask="url(#mask-2)"/>
      <rect id="Rectangle-119-Copy-150" width="16" height="8" fill="#00247D" mask="url(#mask-2)"/>
      <rect id="Rectangle-119-Copy-151" width="16" height="4" fill="#FFCC00" mask="url(#mask-2)"/>
      <g id="stars" mask="url(#mask-2)">
        <g transform="translate(0 4)">
          <mask id="mask-4" fill="white">
            <use xlink:href="#path-3"/>
          </mask>
          <g id="Oval-73" stroke-dasharray="1 1" stroke-width="2" mask="url(#mask-4)" transform="rotate(3 8 4)">
            <use stroke="#FFFFFF" mask="url(#mask-6)" xlink:href="#path-5"/>
          </g>
        </g>
      </g>
      <circle id="Oval-74" cx="2" cy="2" r="1.25" stroke="#09733B" stroke-width="1.5" mask="url(#mask-2)"/>
      <rect id="Rectangle-174" width="1" height="1" x="1" y="1" fill="#CF142B" mask="url(#mask-2)"/>
      <rect id="Rectangle-174-Copy" width="1" height="1" x="2" y="1" fill="#FFCC00" mask="url(#mask-2)"/>
      <polygon id="Rectangle-174-Copy-2" fill="#00247D" points="1 2 3 2 3 3 2 3 1 3" mask="url(#mask-2)"/>
      <g id="Overlay" stroke="#000000" stroke-opacity=".1" mask="url(#mask-2)">
        <rect width="15" height="11" x=".5" y=".5" style="mix-blend-mode:multiply"/>
      </g>
    </g>
  </g>
</svg>
