<svg xmlns="http://www.w3.org/2000/svg" xmlns:xlink="http://www.w3.org/1999/xlink" viewBox="0 0 16 12">
  <defs>
    <rect id="path-1" width="16" height="12" rx="1"/>
    <polygon id="path-3" points="8.268 7.333 17 7.333 17 4.667 8.268 4.667 -.586 -.445 -1.919 1.865 5.244 6 -1.919 10.135 -.586 12.445"/>
  </defs>
  <g id="VU" fill="none" fill-rule="evenodd">
    <g id="Vanuatu-">
      <mask id="mask-2" fill="white">
        <use xlink:href="#path-1"/>
      </mask>
      <use id="Rectangle-77" fill="#BB7474" xlink:href="#path-1"/>
      <rect id="Rectangle-119-Copy" width="16" height="12" fill="#009543" mask="url(#mask-2)"/>
      <rect id="Rectangle-119-Copy-55" width="16" height="6" fill="#D21034" mask="url(#mask-2)"/>
      <polygon id="Path-2" fill="#000000" fill-rule="nonzero" points="0 1 0 11 6 6" mask="url(#mask-2)"/>
      <g id="Combined-Shape" mask="url(#mask-2)">
        <use fill="#FDCE12" xlink:href="#path-3"/>
        <path stroke="#000000" stroke-width=".67" d="M16.665,6.99833333 L16.665,5.00166667 L8.26751963,5.00166667 L8.10001963,4.95678518 L-0.463119559,0.0128544624 L-1.46145289,1.74201852 L5.91358737,6 L-1.46145289,10.2579815 L-0.463119559,11.9871455 L8.10001963,7.04321482 L8.26751963,6.99833333 L16.665,6.99833333 Z"/>
      </g>
      <circle id="Oval-62" cx="2" cy="6" r="1" fill="#FDCE12" mask="url(#mask-2)"/>
      <g id="Overlay" stroke="#000000" stroke-opacity=".1" mask="url(#mask-2)">
        <rect width="15" height="11" x=".5" y=".5" style="mix-blend-mode:multiply"/>
      </g>
    </g>
  </g>
</svg>
